<svg fill="none" height="22" viewBox="0 0 22 22" width="22" xmlns="http://www.w3.org/2000/svg" xmlns:xlink="http://www.w3.org/1999/xlink"><clipPath id="a"><path d="m0 0h22v22h-22z"/></clipPath><g clip-path="url(#a)" fill="#ff91be"><path d="m2.16297 7.32928c-.15653.08979-.21179.2887-.13102.4496.17834.35647.22943.6462.18205.78267-.03845.11074-.26904.28387-.63838.44142-.16753.07094-.25227.26086-.18998.43165.52259 1.40848 1.93295 2.76928 3.1747 3.20048 2.23739.7767 4.95472-.912 5.1489-1.4713.23301-.6711-.66831-3.4909-3.12943-4.34537-1.22312-.4234-3.12079-.23619-4.41684.51085z"/><path d="m4.255 18.8876c.0375.1772.20874.2906.38734.2636.39434-.0599.68595-.0188.80096.0688.09311.0711.18786.3434.22297.7442.01611.1811.16942.3208.35114.3137 1.50064-.0619 3.23137-.9814 4.02519-2.0294 1.43-1.8875.6633-4.9939.1917-5.3507-.56688-.4287-3.52639-.4434-5.09954 1.6325-.78275 1.0306-1.19118 2.893-.87976 4.3573z"/><path d="m15.8936 20.4704c.1803.0187.341-.1085.3702-.2864.0652-.3935.1943-.657.3132-.7398.096-.0669.3848-.072.7762.0175.1777.0404.3576-.0625.407-.2372.4044-1.4464.0643-3.3769-.686-4.4546-1.3533-1.9439-4.5449-2.1746-5.0307-1.8369-.5833.4054-1.5117 3.2166-.0225 5.3543.7392 1.0626 2.3836 2.0271 3.8726 2.1831z"/><path d="m20.9964 9.89232c.0736-.16497.0025-.35759-.1578-.44084-.3535-.18415-.566-.38826-.6069-.52658-.0339-.11201.0508-.38844.257-.73301.0933-.15687.0509-.35961-.1-.4596-1.2506-.83154-3.1912-1.10547-4.4494-.72381-2.2664.6859-3.4734 3.64982-3.3014 4.21592.2065.6796 2.5928 2.4319 5.0863 1.6769 1.2371-.3752 2.6624-1.6426 3.2722-3.00898z"/><path d="m12.5108 1.76928c-.1348-.12076-.3394-.11282-.4686.01401-.284.27994-.5437.41788-.6883.41533-.1172-.00183-.354-.16805-.6177-.47016-.1193-.13667-.3257-.15946-.4686-.0474-1.17742.93239-2.037 2.69331-2.063 4.00664-.04731 2.36757 2.3977 4.431 2.9904 4.4425.7106.0149 3.1146-1.71375 3.1664-4.31793.0257-1.2946-.738-3.04129-1.8506-4.04299z"/></g></svg>