<svg width="35" height="16" viewBox="0 0 35 16" fill="none" xmlns="http://www.w3.org/2000/svg">
<rect width="35" height="16" rx="2" fill="url(#paint0_linear)"/>
<path d="M4 12V4H6.82752C7.80698 4 8.5499 4.18681 9.05626 4.56044C9.56263 4.9304 9.81581 5.47436 9.81581 6.19231C9.81581 6.58425 9.71417 6.9304 9.51088 7.23077C9.3076 7.52747 9.02485 7.74542 8.66263 7.88462C9.07659 7.98718 9.40185 8.19414 9.6384 8.50549C9.87864 8.81685 9.99877 9.1978 9.99877 9.64835C9.99877 10.4176 9.75113 11 9.25585 11.3956C8.76057 11.7912 8.05462 11.9927 7.13799 12H4ZM5.66324 8.51648V10.6758H7.08809C7.47988 10.6758 7.7848 10.5842 8.00287 10.4011C8.22464 10.2143 8.33552 9.95788 8.33552 9.63187C8.33552 8.89927 7.95298 8.52747 7.18788 8.51648H5.66324ZM5.66324 7.35165H6.89405C7.73306 7.337 8.15257 7.00549 8.15257 6.35714C8.15257 5.99451 8.04538 5.73443 7.83101 5.57692C7.62033 5.41575 7.28583 5.33516 6.82752 5.33516H5.66324V7.35165Z" fill="white"/>
<path d="M16.1084 8.53297H12.915V10.6758H16.6628V12H11.2517V4H16.6517V5.33516H12.915V7.24176H16.1084V8.53297Z" fill="white"/>
<path d="M23.8259 5.33516H21.3532V12H19.6899V5.33516H17.2505V4H23.8259V5.33516Z" fill="white"/>
<path d="M28.6715 10.3516H25.7552L25.2008 12H23.4322L26.4372 4H27.9784L31 12H29.2314L28.6715 10.3516ZM26.2043 9.01648H28.2224L27.2078 6.02198L26.2043 9.01648Z" fill="white"/>
<defs>
<linearGradient id="paint0_linear" x1="0" y1="0" x2="35" y2="16" gradientUnits="userSpaceOnUse">
<stop stop-color="#FF91BE"/>
<stop offset="1" stop-color="#91C3FF"/>
</linearGradient>
</defs>
</svg>
