<svg width="15" height="12" viewBox="0 0 15 12" fill="none" xmlns="http://www.w3.org/2000/svg">
  <path d="M14.0811 3.44666L6.34951 11.1967C6.22758 11.3189 6.08348 11.38 5.91721 11.38C5.76202 11.38 5.62346 11.3189 5.50153 11.1967L0.446898 6.14666C0.324966 6.02444 0.264 5.88555 0.264 5.73C0.264 5.56333 0.324966 5.41889 0.446898 5.29666L1.99322 3.74666C2.11515 3.62444 2.25371 3.56333 2.40889 3.56333C2.57516 3.56333 2.71926 3.62444 2.8412 3.74666L5.50153 6.41333C5.62346 6.53555 5.76202 6.59666 5.91721 6.59666C6.08348 6.59666 6.22758 6.53555 6.34951 6.41333L11.6868 1.06333C11.8087 0.941109 11.9473 0.879997 12.1025 0.879997C12.2688 0.879997 12.4129 0.941109 12.5348 1.06333L14.0811 2.59666C14.203 2.71889 14.264 2.86333 14.264 3.03C14.264 3.18555 14.203 3.32444 14.0811 3.44666Z" fill="white"/>
</svg>
