<svg width="22" height="22" viewBox="0 0 22 22" fill="none" xmlns="http://www.w3.org/2000/svg">
<g clip-path="url(#clip0)">
<path d="M2.16297 7.32928C2.00644 7.41907 1.95118 7.61798 2.03195 7.77888C2.21029 8.13535 2.26138 8.42508 2.214 8.56155C2.17555 8.67229 1.94496 8.84542 1.57562 9.00297C1.40809 9.07391 1.32335 9.26383 1.38564 9.43462C1.90823 10.8431 3.31859 12.2039 4.56034 12.6351C6.79773 13.4118 9.51506 11.7231 9.70924 11.1638C9.94225 10.4927 9.04093 7.6729 6.57981 6.81843C5.35669 6.39503 3.45902 6.58224 2.16297 7.32928Z" fill="#FF91BE"/>
<path d="M4.255 18.8876C4.2925 19.0648 4.46374 19.1782 4.64234 19.1512C5.03668 19.0913 5.32829 19.1324 5.4433 19.22C5.53641 19.2911 5.63116 19.5634 5.66627 19.9642C5.68238 20.1453 5.83569 20.285 6.01741 20.2779C7.51805 20.216 9.24878 19.2965 10.0426 18.2485C11.4726 16.361 10.7059 13.2546 10.2343 12.8978C9.66742 12.4691 6.70791 12.4544 5.13476 14.5303C4.35201 15.5609 3.94358 17.4233 4.255 18.8876Z" fill="#FF91BE"/>
<path d="M15.8936 20.4704C16.0739 20.4891 16.2346 20.3619 16.2638 20.184C16.329 19.7905 16.4581 19.527 16.577 19.4442C16.673 19.3773 16.9618 19.3722 17.3532 19.4617C17.5309 19.5021 17.7108 19.3992 17.7602 19.2245C18.1646 17.7781 17.8245 15.8476 17.0742 14.7699C15.7209 12.826 12.5293 12.5953 12.0435 12.933C11.4602 13.3384 10.5318 16.1496 12.021 18.2873C12.7602 19.3499 14.4046 20.3144 15.8936 20.4704Z" fill="#FF91BE"/>
<path d="M20.9964 9.89232C21.07 9.72735 20.9989 9.53473 20.8386 9.45148C20.4851 9.26733 20.2726 9.06322 20.2317 8.9249C20.1978 8.81289 20.2825 8.53646 20.4887 8.19189C20.582 8.03502 20.5396 7.83228 20.3887 7.73229C19.1381 6.90075 17.1975 6.62682 15.9393 7.00848C13.6729 7.69438 12.4659 10.6583 12.6379 11.2244C12.8444 11.904 15.2307 13.6563 17.7242 12.9013C18.9613 12.5261 20.3866 11.2587 20.9964 9.89232Z" fill="#FF91BE"/>
<path d="M12.5108 1.76928C12.376 1.64852 12.1714 1.65646 12.0422 1.78329C11.7582 2.06323 11.4985 2.20117 11.3539 2.19862C11.2367 2.19679 10.9999 2.03057 10.7362 1.72846C10.6169 1.59179 10.4105 1.569 10.2676 1.68106C9.09018 2.61345 8.2306 4.37437 8.2046 5.6877C8.15729 8.05527 10.6023 10.1187 11.195 10.1302C11.9056 10.1451 14.3096 8.41645 14.3614 5.81227C14.3871 4.51767 13.6234 2.77098 12.5108 1.76928Z" fill="#FF91BE"/>
</g>
<defs>
<clipPath id="clip0">
<rect width="22" height="22" fill="white"/>
</clipPath>
</defs>
</svg>
