<svg width="13" height="13" viewBox="0 0 13 13" fill="none" xmlns="http://www.w3.org/2000/svg">
<g clip-path="url(#clip0)">
<path fill-rule="evenodd" clip-rule="evenodd" d="M7.80908 7.29228C7.59607 7.5053 7.59607 7.85066 7.80908 8.06367L9.74125 9.99584L8.39885 11.3382C8.28796 11.4491 8.27012 11.6097 8.35755 11.6971C8.38971 11.7293 8.43191 11.7474 8.47752 11.752L8.53137 11.7504L11.7391 11.6821C11.8468 11.6789 11.9641 11.6299 12.0569 11.5371C12.1497 11.4443 12.1997 11.328 12.2019 11.2193L12.2684 8.00735L12.269 7.96455C12.2656 7.91773 12.2477 7.87332 12.2145 7.84016C12.1271 7.75273 11.9665 7.77057 11.8556 7.88146L10.5126 9.22445L8.58047 7.29228C8.36746 7.07927 8.02209 7.07927 7.80908 7.29228Z" fill="#B4B4B4"/>
<path fill-rule="evenodd" clip-rule="evenodd" d="M7.67927 5.25177C7.46626 5.03876 7.46626 4.6934 7.67927 4.48038L9.61288 2.54678L8.27061 1.20451C8.15972 1.09362 8.14188 0.93308 8.22931 0.84565C8.26147 0.813492 8.30367 0.795397 8.34928 0.790764L8.40313 0.792357L11.6108 0.860643C11.7185 0.86383 11.8359 0.912828 11.9287 1.00564C12.0215 1.09844 12.0715 1.21477 12.0737 1.32348L12.1401 4.5354L12.1407 4.5782C12.1373 4.62502 12.1194 4.66943 12.0863 4.7026C11.9988 4.79003 11.8383 4.77218 11.7274 4.6613L10.3843 3.31817L8.45066 5.25177C8.23765 5.46479 7.89228 5.46479 7.67927 5.25177Z" fill="#B4B4B4"/>
<path fill-rule="evenodd" clip-rule="evenodd" d="M5.76686 7.1657C5.97988 7.37871 5.97988 7.72407 5.76686 7.93708L3.8357 9.86824L5.1781 11.2106C5.28899 11.3215 5.30683 11.4821 5.2194 11.5695C5.18725 11.6017 5.14504 11.6198 5.09943 11.6244L5.04558 11.6228L1.83787 11.5545C1.73017 11.5513 1.61284 11.5023 1.52003 11.4095C1.42722 11.3167 1.37722 11.2004 1.37504 11.0917L1.30856 7.87975L1.30797 7.83695C1.3114 7.79013 1.32929 7.74572 1.36246 7.71256C1.44989 7.62513 1.61043 7.64297 1.72132 7.75386L3.06431 9.09686L4.99547 7.1657C5.20849 6.95268 5.55385 6.95268 5.76686 7.1657Z" fill="#B4B4B4"/>
<path fill-rule="evenodd" clip-rule="evenodd" d="M5.76964 5.25205C5.98265 5.03904 5.98265 4.69368 5.76964 4.48066L3.8358 2.54682L5.1781 1.20452C5.28899 1.09363 5.30683 0.933089 5.2194 0.84566C5.18724 0.813502 5.14504 0.795406 5.09943 0.790773L5.04558 0.792367L1.83787 0.860652C1.73017 0.863839 1.61284 0.912837 1.52003 1.00564C1.42722 1.09845 1.37722 1.21478 1.37504 1.32349L1.30856 4.53541L1.30797 4.57821C1.3114 4.62503 1.32929 4.66944 1.36245 4.70261C1.44988 4.79003 1.61043 4.77219 1.72131 4.66131L3.06441 3.31821L4.99825 5.25205C5.21126 5.46506 5.55663 5.46506 5.76964 5.25205Z" fill="#B4B4B4"/>
</g>
<defs>
<clipPath id="clip0">
<rect x="0.683708" y="0.16687" width="12" height="12" fill="white"/>
</clipPath>
</defs>
</svg>
