<svg fill="none" height="17" viewBox="0 0 22 17" width="22" xmlns="http://www.w3.org/2000/svg"><rect height="14.5" rx="1" stroke="#b4b4b4" stroke-width="2" width="20" x="1" y="1"/><path d="m7.2627 8.75684h-1.6875v1.74316h-.87891v-4.26562h2.77734v.71191h-1.89843v1.10156h1.6875zm2.2998.18164h-.7002v1.56152h-.8789v-4.26562h1.58496c.50394 0 .89254.1123 1.16604.33691.2734.22461.4101.54199.4101.95215 0 .29101-.0634.53418-.1904.72949-.125.19336-.3154.34766-.5713.46289l.9229 1.74318v.041h-.9434zm-.7002-.71192h.70899c.2207 0 .3916-.05566.51271-.16699.1211-.11328.1816-.26855.1816-.46582 0-.20117-.0576-.35937-.1728-.47461-.11331-.11523-.28811-.17285-.52444-.17285h-.70606zm5.5195.42481h-1.6875v1.14258h1.9805v.70605h-2.8594v-4.26562h2.8535v.71191h-1.9746v1.0166h1.6875zm3.375 0h-1.6875v1.14258h1.9805v.70605h-2.8594v-4.26562h2.8535v.71191h-1.9746v1.0166h1.6875z" fill="#b4b4b4"/></svg>