<svg width="22" height="17" viewBox="0 0 22 17" fill="none" xmlns="http://www.w3.org/2000/svg">
<rect x="1" y="1" width="20" height="14.5" rx="1" stroke="#B4B4B4" stroke-width="2"/>
<path d="M7.2627 8.75684H5.5752V10.5H4.69629V6.23438H7.47363V6.94629H5.5752V8.04785H7.2627V8.75684ZM9.5625 8.93848H8.8623V10.5H7.9834V6.23438H9.56836C10.0723 6.23438 10.4609 6.34668 10.7344 6.57129C11.0078 6.7959 11.1445 7.11328 11.1445 7.52344C11.1445 7.81445 11.0811 8.05762 10.9541 8.25293C10.8291 8.44629 10.6387 8.60059 10.3828 8.71582L11.3057 10.459V10.5H10.3623L9.5625 8.93848ZM8.8623 8.22656H9.57129C9.79199 8.22656 9.96289 8.1709 10.084 8.05957C10.2051 7.94629 10.2656 7.79102 10.2656 7.59375C10.2656 7.39258 10.208 7.23438 10.0928 7.11914C9.97949 7.00391 9.80469 6.94629 9.56836 6.94629H8.8623V8.22656ZM14.3818 8.65137H12.6943V9.79395H14.6748V10.5H11.8154V6.23438H14.6689V6.94629H12.6943V7.96289H14.3818V8.65137ZM17.7568 8.65137H16.0693V9.79395H18.0498V10.5H15.1904V6.23438H18.0439V6.94629H16.0693V7.96289H17.7568V8.65137Z" fill="#B4B4B4"/>
</svg>
