<svg fill="none" height="16" viewBox="0 0 16 16" width="16" xmlns="http://www.w3.org/2000/svg" xmlns:xlink="http://www.w3.org/1999/xlink"><linearGradient id="a" gradientUnits="userSpaceOnUse" x1="-8.04001" x2="23.96" y1="-7.624" y2="24.376"><stop offset="0" stop-color="#ff91be"/><stop offset="1" stop-color="#91c3ff"/></linearGradient><path d="m9.496 13.976h1.424v1.616h-5.744v-1.616h1.36c.08533 0 .144-.0053.176-.016s.05867-.0213.08-.032c.032-.032.048-.112.048-.24v-5.312c0-.14933-.016-.25067-.048-.304s-.05867-.09067-.08-.112c-.11733-.096-.29867-.144-.544-.144h-1.168v-1.6l4.288-.112v7.728.064c.01067.0107.016.0213.016.032.032.032.096.048.192.048zm-1.68-9.68c-.448 0-.832-.16-1.152-.48-.33067-.33067-.496-.71467-.496-1.152 0-.42667.16533-.816.496-1.168.33067-.33067.71467-.496 1.152-.496s.82133.16533 1.152.496c.33067.352.496.74133.496 1.168 0 .448-.16.832-.48 1.152s-.70933.48-1.168.48z" fill="url(#a)"/></svg>