<svg fill="none" height="16" viewBox="0 0 16 16" width="16" xmlns="http://www.w3.org/2000/svg" xmlns:xlink="http://www.w3.org/1999/xlink"><linearGradient id="a" gradientUnits="userSpaceOnUse" x1="-7.18437" x2="23.1844" y1="-7.10846" y2="23.2603"><stop offset="0" stop-color="#ff91be"/><stop offset="1" stop-color="#91c3ff"/></linearGradient><path d="m8 10.7332c.37455 0 .72885-.0709 1.06291-.2126.33405-.1417.62256-.334.86551-.577.25308-.25307.45048-.54664.59218-.88069.1417-.33406.2126-.68836.2126-1.06291s-.0709-.72885-.2126-1.06291c-.1417-.33405-.3391-.62256-.59218-.86551-.24295-.25307-.53146-.45047-.86551-.59219-.33406-.14172-.68836-.21258-1.06291-.21258s-.72885.07086-1.06291.21258c-.33405.14172-.62762.33912-.88069.59219-.24295.24295-.43529.53146-.57701.86551-.14172.33406-.21258.68836-.21258 1.06291s.07086.72885.21258 1.06291c.14172.33405.33406.62762.57701.88069.25307.243.54664.4353.88069.577.33406.1417.68836.2126 1.06291.2126zm5.5727-3.67463 1.2147.16703c.1417.02024.2126.09616.2126.22776v1.09328c0 .14172-.0709.2227-.2126.24295l-1.2147.16703c-.0608.34417-.1519.68329-.2734 1.01735l.9718.74403c.1114.0911.1316.1974.0608.3189l-.5467.9414c-.0708.1012-.167.1367-.2885.1063l-1.1388-.4707c-.1113.1417-.2328.2733-.3644.3948-.1215.1215-.248.2379-.3796.3492l.4555 1.1388c.0203.0507.0203.1063 0 .1671-.0202.0607-.0557.1012-.1063.1214l-.9414.5467c-.1114.0708-.2126.0506-.3037-.0608l-.75921-.9566c-.34418.1114-.6833.1974-1.01736.2582l-.16703 1.2147c-.02024.1417-.09616.2126-.22776.2126h-1.09328c-.14172 0-.2227-.0709-.24295-.2126l-.16703-1.2147c-.34418-.0608-.68329-.1519-1.01735-.2734l-.74403.9718c-.09111.1114-.1974.1316-.31888.0608l-.94143-.5467c-.10123-.0708-.13666-.167-.10629-.2885l.47072-1.1388c-.14172-.1113-.27332-.2277-.3948-.3492-.12147-.1316-.23789-.2632-.34924-.3948l-1.13883.4555c-.05061.0203-.10629.0203-.16702 0-.06074-.0202-.10123-.0557-.12148-.1063l-.54664-.9414c-.07086-.1114-.05061-.2126.06074-.3037l.95662-.75922c-.11136-.34418-.1974-.68329-.25814-1.01735l-1.21475-.16703c-.14172-.02024-.21258-.09616-.21258-.22776v-1.09328c0-.14172.07086-.2227.21258-.24295l1.21475-.16703c.06074-.34418.15185-.68329.27332-1.01735l-.9718-.74403c-.11135-.09111-.1316-.1974-.06074-.31888l.54664-.94143c.07086-.10123.16703-.13666.2885-.10629l1.13883.47072c.11135-.14172.22777-.27332.34924-.3948.1316-.12147.2632-.23789.3948-.34924l-.45553-1.13883c-.02025-.05061-.02025-.10629 0-.16702.02024-.06074.05567-.10123.10629-.12148l.94143-.54664c.11135-.07086.21258-.05061.30369.06074l.75921.95662c.34418-.11136.6833-.1974 1.01736-.25814l.16703-1.21475c.02024-.14172.09616-.21258.22776-.21258h1.09328c.14172 0 .2227.07086.24295.21258l.16703 1.21475c.34418.06074.68329.15185 1.01735.27332l.74403-.9718c.0911-.11135.1974-.1316.3189-.06074l.9414.54664c.1114.07086.1417.16703.0911.2885l-.4555 1.13883c.1417.11135.2733.23283.3948.36443.1215.12147.2379.24801.3492.37961l1.1388-.45553c.0507-.02025.1063-.02025.1671 0 .0607.02024.1012.05567.1214.10629l.5467.94143c.0708.11135.0506.21258-.0608.30369l-.9566.75921c.1114.34418.1974.6833.2582 1.01736z" fill="url(#a)"/></svg>