<svg fill="none" height="24" viewBox="0 0 128 24" width="128" xmlns="http://www.w3.org/2000/svg"><path d="m79.4627 9.45786s.7824.93634 2.274.93634c1.4914 0 2.7422-.93634 2.7422-.93634l-.2571 5.37824s-2.2115 3.1335-3.7029 2.3878c-1.4916-.7457-1.4916-2.61-1.678-3.9153-.1865-1.3051.6218-3.85074.6218-3.85074z" fill="#dee2f4"/><path d="m13.2617 9.50322s.404 1.52188 1.5282 1.84968c1.93.5631 3.3776-.1607 3.3776-.1607s2.5774-1.74572 2.5774-3.61223-1.8665-2.98629-3.3596-2.61309c-1.4932.37338-4.1236 4.53634-4.1236 4.53634z" fill="#deb5e3"/><path d="m60.3528 12.8505s.5001-2.6674 2.0005-3.00087c1.5005-.33328 3.0009.16667 3.0009.16667s.8336 1.6672.3335 2.5008c-.5001.8335-2.6675 1.6672-2.6675 1.6672l-1.9626-.0018z" fill="#e3e3e3"/><g clip-rule="evenodd" fill-rule="evenodd"><path d="m26.7903 9.78955c-1.5657 0-2.7833 2.95705-2.7833 2.95705s-.6958 1.0439 0 2.6094c.6958 1.5656 1.5657 2.0875 2.9572 1.9135 1.3918-.1739 3.3052-2.7833 3.3052-2.7833l.5218-3.3051s-2.4352-1.39155-4.0009-1.39155zm20.0925 6.31015c-1.3945 0-3.0989 1.0846-3.0989 1.0846l.7749-4.1835 1.5494-2.6342 1.3946-.46471h1.3944l.7746 1.39441-.3098 5.4232s-1.0846-.6198-2.4792-.6198z" fill="#bbecdb"/><path d="m36.5319 6.65828c-.696 1.04384-1.0439 4.00112-1.0439 4.00112h2.7833l2.0875-1.73966.3479-2.26146-.8697-1.21762-1.0438-.34789s-1.5655.52184-2.2613 1.56551zm33.506 10.01522c-1.4806-.1646-3.7838.4934-3.7838.4934s2.6323-2.3034 3.1257-4.2776c.4937-1.9742 0-2.7967 0-2.7967l2.3035.4936h2.3032s-.6581 1.645-.8225 3.6192c-.1646 1.9744.8225 2.9615.8225 2.9615s-2.4679-.329-3.9486-.4934z" fill="#feecba"/><path d="m4.0857 2.00214c.21098-.02005.9494.06234 1.48244 1.19485.88773 1.88571.36012 2.73454-.2582 3.40195-.90964-.01172-1.88842-.2142-2.64349-2.15681-.45338-1.16666-.00441-1.75865.15543-1.8976.38373.2582.80784.40311.91551.43989.01487.00508.02371.0081.02556.00907.00057-.00203.00457-.01074.01131-.02543v-.00001c.04792-.10445.23445-.51096.31144-.96591zm13.9338 2.25305c-3.4757 0-5.7604 3.41758-5.7604 7.33461 0 3.9757 2.3423 6.741 6.1834 6.741 2.3497 0 3.9704-1.1378 4.9038-2.4028.6247 1.2449 1.7754 1.9804 3.1436 1.9804 1.8244 0 2.9377-1.2487 3.3605-2.42l.0766.0195c0 .0303-.003.0762-.0066.1313-.0055.0831-.0124.1873-.0124.291 0 1.1898.9217 1.9782 2.2657 1.9782 1.527 0 2.6225-1.0652 3.2928-2.1479.6852 1.3478 1.985 2.1479 3.7179 2.1479 1.7199 0 2.9932-.6779 3.8613-1.6586v1.0624c0 .2692.115.4038.3647.4038h.9217c.2307 0 .3459-.1149.3459-.3841v-.9795c0-1.94 1.0752-5.8754 3.0724-5.8754.9025 0 1.2098.633 1.2098 1.8042 0 1.2573-.0429 2.2636-.0802 3.14v.0001.0001.0001.0001.0001.0001.0001.0001c-.0288.6762-.0543 1.2751-.0543 1.8523 0 .2693.1345.4417.3456.4417h.9219c.2881 0 .3647-.1724.3647-.5188 0-3.8215 1.3055-6.7202 2.9187-6.7202.8447 0 1.21.5373 1.21 1.6318 0 .5357-.0323 1.0532-.0652 1.5815v.0002c-.0343.5508-.0694 1.1134-.0694 1.7207 0 1.5754 1.2674 2.4971 2.6116 2.4971 1.4775 0 2.5605-.9776 3.2618-2.0712.7824 1.32 2.2586 2.0712 4.0762 2.0712 2.517 0 4.1426-1.3528 4.9023-2.8807.0191-.0217.0364-.0532.0537-.0961.5184-.9598.8257-2.4775.8257-3.5523v-.2692c.3457.0576.7296.0966 1.1519.0966.768 0 1.4981-.1347 1.9205-.2498l.0384.0575c-.4804 1.344-1.0564 3.0529-1.0564 4.244 0 1.5937 1.1905 2.65 2.8039 2.65 1.4168 0 2.4746-.8021 3.188-1.7701.3401 1.1663 1.1786 1.77 2.4589 1.77 1.8436 0 3.0724-1.6132 3.5333-3.0724l.0766.0185-.019 2.1701c0 3.1105-1.2864 4.206-2.8613 4.206-.8831 0-1.4597-.4616-1.8048-.7687-.1731-.1726-.2497-.2302-.3269-.2302-.2495 0-.8255.7491-.8255.9989 0 .4408 1.1904 1.4591 2.8612 1.4591 2.9573 0 4.474-2.1507 4.474-5.5119v-7.56471c0-.23136-.1151-.36488-.3453-.36488h-.9987c-.2113 0-.3263.13352-.3263.40276v.72963c0 2.688-1.2675 6.0872-3.0724 6.0872-1.0564 0-1.3637-.8261-1.3637-1.9965 0-.7601.0161-1.7443.0312-2.674v-.0004-.0003-.0002-.0002-.0001-.0012c.0136-.8316.0264-1.6193.0264-2.16346 0-.24971-.115-.38323-.3647-.38323h-.9603c-.2111 0-.3647.11517-.3647.38323v4.27696c-.4241 1.0216-1.3857 2.5594-2.7087 2.5594-.9413 0-1.4788-.5765-1.4788-1.4592 0-1.21.5706-2.825.9218-3.8188.156-.4416.2687-.7606.2687-.8668 0-.1726-.7493-.99882-.9604-.99882-.0605 0-.1748.03473-.3377.08428-.4052.12326-1.1119.33818-2.0431.33818-1.588 0-2.308-.51012-2.6653-.76326-.1179-.08353-.1963-.13908-.2533-.13908-.2499 0-.8453.88383-.8453 1.09429 0 .11521.0581.21181.2307.36491.2302.1737.4799.3268.7681.4615.0191.1345.0191.2681.0191.4028 0 .9607-.2302 2.1124-.5761 2.9377-.006.0212-.0136.0449-.0219.0698-.6205 1.2175-1.8111 2.3695-3.743 2.3695-1.4598 0-2.6887-.6535-3.1111-1.8056.1727.0197.4224.0197.6336.0197 2.0741 0 4.1096-1.1335 4.1096-3.3601 0-1.3636-1.0948-2.36238-2.5735-2.36238-2.2468 0-3.9746 2.03558-3.9746 4.41638 0 .29.0216.5681.0633.8338-.4797.967-1.3285 2.1812-2.3704 2.1812-.8642 0-1.2484-.6341-1.2484-1.5556 0-.8312.0501-1.6988.0891-2.3754v-.0002l.0001-.001v-.0003c.0249-.4319.0453-.7859.0453-1.0028 0-1.57437-.9407-2.49591-2.4578-2.49591-1.9395 0-3.034 1.49821-3.4947 2.93771l-.0576-.0197.0189-.6523c0-1.34417-.787-2.26571-2.1505-2.26571-1.8436 0-2.9953 1.55561-3.5333 3.03431l-.0766-.0195c.0151-.2981.0395-.6965.0633-1.0864v-.0007l.0001-.0002v-.0005c.036-.5892.0708-1.15843.0708-1.33213 0-.24971-.0962-.38322-.3459-.38322h-.9407c-.2307 0-.3457.11517-.3457.44064v4.23621c-.5722 1.2547-1.6427 2.6199-3.6116 2.6199-1.8048 0-2.9377-1.3256-2.9377-3.3612v-1.2475c2.688-.7489 5.012-2.78462 5.012-5.06986 0-1.45917-.9988-2.61105-2.6311-2.61105-2.7456 0-3.9557 3.09076-3.9557 6.58661v2.419c0 .2815.0164.5533.0487.8146-.4913 1.0651-1.3594 2.3921-2.4703 2.3921-.8257 0-1.229-.7674-1.229-1.8432 0-1.0177.0951-2.7532.1576-3.8954v-.0001c.0307-.5601.0536-.97745.0536-1.09744 0-.26823-.134-.38323-.3647-.38323h-.9408c-.2111 0-.3458.13352-.3458.36471v.46036l-.0574.0195c-.6146-.57652-1.6129-1.05639-2.8229-1.05639-2.4193 0-4.1091 1.97809-4.1091 4.58899 0 .2352.013.4629.0381.6827-.673 1.2466-2.0885 2.5625-4.2071 2.5625-2.8801 0-4.666-2.1117-4.666-5.3186 0-2.93772 1.5552-5.83755 3.9746-5.83755 1.2484 0 1.863.787 1.863 1.7663 0 1.21065-.999 2.01599-2.4776 2.47752-.134.03788-.1916.09543-.1916.17263 0 .2116.3647 1.2093.557 1.2093.115 0 .2686-.0184.3837-.0576 1.9585-.5569 3.3607-1.97679 3.3607-3.76262 0-1.82506-1.3447-3.26469-3.4568-3.26469zm9.3731 6.22191c1.0172 0 1.9774.6144 2.4383 1.1517 0 1.786-.8832 4.8387-3.0722 4.8387-1.229 0-2.2274-1.0943-2.2274-2.7846 0-1.9389 1.2095-3.2058 2.8613-3.2058zm9.1038 0c1.5361-.4615 3.4947-1.90216 3.4947-3.55328 0-.7481-.3839-1.28658-1.1714-1.28658-1.5361 0-2.2847 2.53495-2.3233 4.83986zm28.347.9019c0-.672-.4797-1.0759-1.1714-1.0759-1.306 0-2.4388 1.3635-2.4195 2.9391 0 .0757 0 .2104.0192.2875.192.0196.3843.0381.634.0381 1.5167 0 2.9377-.7676 2.9377-2.1888zm-63.24885-5.14063c-1.241734.15696-1.5483458.83389-1.59455 1.04062.41028.21455.740134.51886.823229.59552.011378.0105.018129.01672.019827.01787-.001469.00145-.006962.00878-.016209.02113-.067722.09041-.336802.44966-.701484.73512.082726.19484.507057.80501 1.756607.73417 2.08089-.11771 2.57588-.98591 2.8684-1.84765-.44404-.79431-1.08818-1.55837-3.15582-1.29678zm2.16144 6.55703c-.18227-.1077-.73128-.6085-.49686-1.838.39018-2.04726 1.31597-2.42386 2.20845-2.60069.72908.5446 1.40193 1.2837.87092 3.29889-.31885 1.2103-1.03025 1.4253-1.24123 1.4438-.15791-.4328-.41462-.7981-.48117-.8928-.00948-.0135-.0151-.0215-.01603-.0234-.00163.0012-.00956.0057-.02292.0132h-.00003-.00001c-.09833.0551-.48993.2748-.82112.599zm4.50558-1.963c1.09684.6029 1.74283.2355 1.90153.0955-.20515-.4137-.2931-.8523-.31565-.96476l-.00001-.00007c-.00316-.01574-.00503-.02507-.00576-.02703.00205-.00031.01085-.00303.02568-.0076.10816-.03339.53684-.16573.99944-.18231.0476-.20639.0631-.94923-.98962-1.62666-1.75253-1.12776-2.66336-.71617-3.40636-.1911-.10787.90353-.03568 1.90031 1.79075 2.90403zm2.10533-6.57509c.0842.19416.234.92204-.67832 1.77903-1.51896 1.42689-2.48942 1.18738-3.31532.80569-.26975-.86888-.37965-1.86227 1.23443-3.18062.96944-.79175 1.67117-.54765 1.85293-.4386-.12712.44462-.13394.89252-.13567 1.00643-.00024.01578-.00039.02515-.00074.02722.00205-.00006.01102.001.02613.00278.11159.01314.5578.0657 1.01656-.00193z" fill="#ff7dbb"/><path d="m125.782 11.8014c.251-.9071-.13-1.316-.26-1.4079-.268.2223-.574.3629-.652.3985-.01.0049-.017.0078-.018.0087-.001-.0015-.004-.0074-.01-.0174-.043-.0733-.214-.3641-.307-.6998-.159.0012-.705.1187-1.018 1.0065-.521 1.4778-.062 2.073.451 2.5256.68-.078 1.397-.3036 1.814-1.8142zm-16.204.8339c-.465-.3384-1.042-.5493-1.676-.5493h-.098c0 .507.366 1 .958 1 .323 0 .633-.1697.816-.4507zm1.197 2.3233c0-.8305-.352-1.5772-.915-2.098-.254.3519-.676.5495-1.098.5495-.226 0-.451-.0566-.648-.1697-.409-.2254-.648-.6759-.648-1.1123-1.38.211-2.422 1.3943-2.422 2.8305 0 1.5917 1.267 2.8592 2.858 2.8592 1.592 0 2.873-1.2675 2.873-2.8592zm-6.069 0c0-1.7739 1.422-3.2112 3.196-3.2112.676 0 1.296.212 1.803.5638.014-.0566.028-.1265.028-.1974 0-.3377-.169-.6618-.479-.8449-.056-.0277-.084-.0843-.084-.1408 0-.0844.056-.1689.169-.1689.028 0 .042 0 .084.0145.352.1831.648.6614.648 1.1688 0 .1409-.028.281-.07.3941.676.5915 1.112 1.4507 1.112 2.422 0 1.7748-1.436 3.1968-3.211 3.1968-1.774 0-3.196-1.422-3.196-3.1968zm-2.735 2.352v-2.8026c0-1.352-1.084-2.4222-2.436-2.4222-1.3238 0-2.4506 1.0279-2.4506 2.3233v3.5917c0 .098-.0703.169-.1691.169-.0982 0-.1687-.071-.1687-.169v-3.5917c0-1.2954-1.1268-2.3233-2.4364-2.3233-1.3238 0-2.4502 1.0279-2.4502 2.3233v3.5917c0 .098-.0705.169-.1692.169-.0991 0-.1694-.071-.1694-.169v-6.0837c0-.0988.0703-.1697.1694-.1697.0987 0 .1692.0709.1692.1697v1.2676c.4644-.8592 1.3941-1.4373 2.4502-1.4373 1.197 0 2.2111.7468 2.6051 1.8027.3947-1.0559 1.4224-1.8027 2.6197-1.8027 1.535 0 2.774 1.2255 2.774 2.7606v2.8026c0 .8735.733 1.7182 1.605 1.7182.085 0 .17.07.17.1687s-.071.169-.17.169c-1.069 0-1.943-.9857-1.943-2.0559zm13.608-5.2246c1.296 0 1.859.8169 1.859 1.6195 0 .7748-.507 1.5207-1.718 1.5207-.381 0-.733-.1123-1.014-.3097-.029-.0279-.071-.0421-.113-.0421-.099 0-.169.0699-.169.1686 0 .0709.028.1132.07.141.353.254.747.3663 1.226.3663 1.45 0 2.056-.9014 2.056-1.8305 0-.9724-.662-1.9722-2.197-1.9722-1.69 0-3.056 1.4372-3.056 3.211 0 1.7748 1.422 3.1968 3.197 3.1968 1.126 0 2.098-.5915 2.619-1.5351.028-.0422.042-.07.042-.1266 0-.0987-.084-.1687-.169-.1687-.07 0-.126.0422-.155.0987-.45.8871-1.281 1.3941-2.323 1.3941-1.605 0-2.873-1.2675-2.873-2.8592 0-1.5915 1.211-2.8726 2.718-2.8726zm5.027-.6844c.128-.0953.634-.3312 1.419.1877 1.308.864 1.301 1.6156 1.165 2.2861-.589.3482-1.297.6008-2.541-.3515-.748-.5721-.691-1.1279-.643-1.2797.348.0159.677-.0569.76-.0754.012-.0025.019-.004.02-.0041 0-.0016-.001-.0084-.002-.0199-.01-.0845-.049-.4196-.178-.7432zm.056 3.6951c-.736.5864-.668 1.1412-.617 1.2919.347-.0225.676.0434.761.0603.012.0024.019.0038.021.0039-.001.0016-.001.0091-.002.0217h-.001v.0001c-.008.0876-.041.421-.163.7446.13.093.641.3189 1.416-.2152 1.29-.8896 1.269-1.6409 1.12-2.3085-.596-.3367-1.309-.5753-2.535.4012zm3.953 3.366c-.159.002-.707-.105-1.038-.9862-.55-1.4675-.102-2.0714.402-2.534.681.0646 1.402.2761 1.849 1.7782.269.902-.104 1.3184-.232 1.4128-.271-.2165-.58-.3509-.659-.3855l-.012-.0051c-.004-.0018-.006-.003-.007-.0035 0 .0009-.002.0033-.004.0071-.001.0028-.003.0062-.006.0104-.041.074-.207.3681-.293.7058zm2.126-3.0227c.94-.0418 1.212-.5304 1.259-.6824-.293-.1851-.521-.4318-.58-.4958v-.0001c-.008-.009-.013-.0144-.014-.0154.001-.001.005-.0063.013-.0152.057-.0642.28-.3164.571-.5076-.05-.1512-.331-.6345-1.272-.6578-1.567-.0389-1.991.5815-2.263 1.2095.285.6224.721 1.2344 2.286 1.1648zm-38.2902 1.3633c.2957 0 .5072.2118.5072.5072 0 .2818-.2115.5071-.5072.5071-.2815 0-.5069-.2253-.5069-.5071 0-.2954.2254-.5072.5069-.5072zm0-.3377c-.4507 0-.8448.3943-.8448.8449 0 .4505.3941.8448.8448.8448.4506 0 .8451-.3943.8451-.8448 0-.4506-.3945-.8449-.8451-.8449z" fill="#7e72d8"/></g></svg>
