<svg fill="none" height="288" viewBox="0 0 512 288" width="512" xmlns="http://www.w3.org/2000/svg"><path d="m22.9681 83.1916-16.88845 1.4747-2.34087-26.706c-.40795-4.6541 3.04085-8.7584 7.70542-9.1657l26.7563-2.3365 1.4776 16.8567-18.3121 1.5991z" fill="#ccc"/><path d="m492.192 42.217-16.888 1.4748-1.603-18.2777-18.312 1.5991-1.477-16.8567 26.756-2.33644c4.665-.40733 8.775 3.03684 9.183 7.69094z" fill="#ccc"/><path d="m58.3973 276.881-26.7563 2.336c-4.6629.407-8.7749-3.035-9.183-7.691l-2.3409-26.706 16.8884-1.475 1.6021 18.278 18.3122-1.599z" fill="#ccc"/><path d="m500.865 238.242-26.756 2.337-1.477-16.857 18.312-1.599-1.602-18.278 16.888-1.474 2.341 26.706c.408 4.656-3.041 8.758-7.706 9.165z" fill="#ccc"/><path d="m285.162 146.082-57.127 4.988c-2.798.245-5.265-1.821-5.51-4.614s1.825-5.255 4.623-5.5l57.127-4.988c2.799-.245 5.265 1.821 5.51 4.614.245 2.794-1.825 5.255-4.623 5.5z" fill="#ccc"/><path d="m257.821 162.526c-2.798.244-5.265-1.822-5.51-4.615l-2.445-27.899c-.245-2.794 1.825-5.255 4.623-5.5 2.798-.244 5.265 1.822 5.51 4.615l2.445 27.899c.245 2.793-1.825 5.255-4.623 5.5z" fill="#ccc"/><path d="m187.817 110.925c-1.267-14.4634-16.097-25.0261-33.058-23.545-7.99.6977-15.329 3.9425-20.663 9.1371l8.524 8.7199c3.323-3.235 8.012-5.2669 13.203-5.7202 10.255-.8955 19.155 4.6982 19.836 12.4692.664 7.576-6.735 14.452-16.611 15.622-1.308.243-2.733.003-3.921-.673-1.153-.655-1.963-1.643-2.218-2.709-.186-.767-.067-1.479.352-2.115 1.183-1.804 4.214-2.171 6.565-.922 1.508.803 8.257-1.675 9.348-5.825.3-1.141-.379-3.096-3.309-4.759-8.013-4.558-18.034-2.439-22.808 4.819-2.278 3.464-2.994 7.601-2.016 11.652 1.042 4.324 3.976 8.132 8.047 10.445 3.142 1.786 6.722 2.577 10.269 2.312v.007c.027-.003.052-.01.079-.012.046-.003.09-.001.136-.005.39-.035.777-.106 1.165-.165 16.261-2.048 28.313-14.67 27.08-28.733z" fill="#7e72d8"/><path d="m172.509 69.7732s-32.96 38.9978-36.038 42.6558c-3.075 3.659-15.961-.138-11.791-5.099 4.17-4.96 38.394-45.4585 38.394-45.4585z" fill="#7e97f2"/><path d="m374.393 108.415-26.429 2.308-1.011-11.533 22.178-1.9367c1.241-.1084 1.504-.6647 1.438-1.4182-.089-1.0148-.654-1.3663-1.674-1.2772l-20.099 1.7551-.953-10.8708-5.092.4446-1.018-11.621 5.091-.4446-.205-2.3431 13.149-1.1482.206 2.343 22.137-1.9331 1.019 11.621-22.138 1.9331.186 2.1206 11.201-.9781c8.103-.7076 11.806 4.4011 12.337 10.456.6 6.8506-2.929 11.8776-10.323 12.5226z" fill="#ff7dbb"/><path d="m409.362 99.261-7.483.6535-.894-10.2067 7.483-.6535c1.106-.0966 1.462-.6186 1.384-1.5019-.054-.6169-.535-1.0216-1.597-.9288l-8.944.781 2.509 18.4384-9.962.869-2.464-18.4414-2.079.1815-.848-9.6774 1.636-.1429-.424-3.3024 9.873-.8621.468 3.2985 5.933-.5181-.295-3.3578 9.652-.8428.36 4.1096c5.041 1.0291 6.945 4.4247 7.398 9.5947.686 7.8215-3.16 11.7634-11.706 12.5096z" fill="#7e72d8"/><path d="m453.266 101.439c-7.26.634-11.765-1.9099-12.431-9.5106l-.713-8.1333c-.089-1.0148-.776-1.7106-2.148-1.5909l-.709.062.723 20.4638-12.085 1.056-1.415-39.5521 12.13-1.0592.201 6.3487 1.283-.1121c7.35-.6418 11.715 2.8515 12.335 9.9229l.763 8.7047c.073.8395.503 1.1587 1.167 1.1007.575-.0503 1.212-.4184 1.135-1.3017l-1.499-17.1011 11.246-.982 1.44 16.4369c.709 8.0879-2.037 14.4273-11.423 15.2473z" fill="#ff7dbb"/><path d="m172.045 59.3296-43.33 3.7838c-6.229.5439-.04 11.8935 4.552 11.4925l36.295-3.1694c4.592-.401 8.712-12.6508 2.483-12.1069z" fill="#7e72d8"/><path d="m82.5334 91.3175-.0027-.0303-5.6981.4976c1.7697-6.2337 3.0131-10.6091 3.1954-11.2467 1.955-6.858-12.7068-4.8897-14.1507.169-.1286.4545-1.5266 5.3768-3.5029 12.3402l-20.7305 1.8103c-7.1185.6216-.0474 13.5924 5.2015 13.1344l11.5736-1.011c-5.1227 18.052-11.07 39.005-11.4855 40.458-1.9566 6.858 12.707 4.891 14.1509-.168.2808-.989 6.5413-23.048 11.7945-41.552l10.2242-.893c8.7178-.761 16.4297 5.697 17.1919 14.399.763 8.701-5.7075 16.402-14.4253 17.163l-3.9891.349c-7.0999.62-.075 13.53 5.1707 13.131l.0004.006c.0084-.001.0151-.003.0252-.004.0017-.001.0052.001.0086.001l.662-.058-.0048-.035c15.8123-1.758 27.4573-15.83 26.0633-31.733-1.396-15.931-15.3602-27.7858-31.2726-26.7275z" fill="#ff7dbb"/><path d="m121.038 91.5357c.594 6.7763-4.429 12.7503-11.218 13.3433-6.787.593-12.7729-4.42-13.3669-11.1965-.594-6.7764 4.4289-12.7506 11.2159-13.3433 6.789-.5929 12.775 4.4201 13.369 11.1965z" fill="#ffbebb"/><path d="m314.108 62.5545.154 1.7497 1.029 11.739 1.917 21.8698c.615 7.021-4.606 13.23-11.64 13.844l-7.749.677c-8.005.699-.05 15.291 5.856 14.775l3.381-.295-.001-.008c15.231-1.415 26.531-14.812 25.363-30.0189l.015-.0013-1.943-22.1699-1.029-11.739-.549-6.2656c-.7-7.9901-15.32-.0516-14.804 5.8432z" fill="#7e72d8"/><path d="m282.48 66.1624.227 2.5875.515 5.8796.44 5.0216.614 6.9972.128 1.4699c.517 5.8947 16.296 11.1803 15.596 3.1886l-.525-5.9858-.613-6.9972-.44-5.0216-.516-5.8796-.622-7.1034c-.701-7.9918-15.321-.0516-14.804 5.8432z" fill="#7e97f2"/><path d="m229.727 89.6573c.597 6.8118-4.305 12.8437-11.02 13.7597-6.772.261-12.648-4.829-13.245-11.6408-.616-7.0208 4.605-13.2315 11.64-13.8457l-.074-.8428 11.509-1.0051zm21.483-29.0039-.012-.1382-8.643.7548-.674-7.6799-.868-9.9084c-.701-7.9917-15.32-.0516-14.804 5.8432l.473 5.3925.673 7.6799-11.509 1.005-.074-.8428c-15.414 1.346-26.858 14.9589-25.51 30.344 1.312 14.9655 14.259 26.1445 29.149 25.5065l.006.064c.211-.018.411-.063.62-.086.208-.014.415-.004.626-.023l-.005-.064c14.205-1.876 24.707-14.202 24.331-28.4507l.088-.0077-.04-.4484-1.3-14.8389 5.912-.5163c7.499-.6548 14.134 4.9027 14.79 12.387.656 7.4844-4.912 14.108-12.41 14.762l1.182 13.486c14.95-1.306 26.047-14.506 24.739-29.4278-1.227-14.0011-12.948-24.6145-26.74-24.7928" fill="#ff7dbb"/><path d="m207.847 54.7735-.079.0069.045.5158 1.061 12.1065.121 1.3822.919 10.4815.142 1.625c.517 5.8931 16.296 11.1787 15.596 3.1869l-.539-6.1392-.918-10.4814-.121-1.3823-1.107-12.6223-.35-4.0001c-.681-7.7591-14.442-.5037-14.77 5.3205z" fill="#ffbebb"/><g fill="#ff7dbb"><path d="m455.043 161.68-16.899 8.657 8.356-17.028z"/><path d="m457.792 176.383-16.408-2.659 15.206-4.964z"/><path d="m437.762 151.253-3.56 17.064-3.411-15.677z"/><path d="m435.323 187.974c-.318.956-1.355 1.475-2.314 1.156l-3.911-1.294c-.961-.319-1.48-1.352-1.161-2.309l.481-1.448c.318-.957 1.354-1.476 2.313-1.159l3.912 1.296c.96.319 1.48 1.352 1.16 2.309zm-31.324 16.103c-6.8-2.253-10.484-9.582-8.226-16.368 2.257-6.786 9.598-10.461 16.398-8.209 6.797 2.253 10.482 9.58 8.225 16.366-2.257 6.787-9.598 10.462-16.397 8.211zm-20.642-7.802c-.16.48-.679.739-1.157.581l-.724-.241c-.48-.159-.74-.676-.581-1.156l7.595-22.843c.161-.479.679-.737 1.158-.578l.724.241c.478.157.74.674.581 1.153zm56.932-14.281-14.172-4.694-.006-3.171c-.003-2.017-1.56-4.169-3.479-4.805l-12.749-4.224c-1.919-.635-4.457.16-5.668 1.776l-1.901 2.537-7.799-2.582.529-1.593c.159-.478-.099-.995-.58-1.156l-3.189-1.054c-.479-.159-.997.1-1.156.579l-.529 1.592-1.45-.481c-1.919-.634-3.991.403-4.628 2.318l-9.953 29.929c-.637 1.915.402 3.983 2.321 4.619l52.149 17.276c1.919.636 3.991-.401 4.628-2.316l9.953-29.93c.637-1.916-.402-3.984-2.321-4.62z"/><path d="m415.773 193.811c-2.552.223-4.801-1.661-5.025-4.208-.19-2.166 1.154-4.1 3.127-4.771-.846-.703-1.822-1.278-2.93-1.645-4.76-1.577-9.901.995-11.48 5.747-1.58 4.749.998 9.88 5.759 11.456 4.76 1.577 9.9-.997 11.48-5.746.122-.369.175-.741.25-1.113-.377.137-.765.244-1.181.28z"/><path d="m311.183 177.447 33.777-2.949c5.754-.503 10.913-15.846 3.112-15.165l-42.592 3.719c-7.799.682-.049 14.898 5.703 14.395z"/><path d="m349.2 182.046c-.316-.032-.631-.067-.989-.036l-44.991 3.929c-7.799.681-.05 14.896 5.704 14.393l34.846-3.043c-2.804 11.116-6.512 25.837-7.138 28.261-2.2 8.512 15.812 5.638 17.434-.641.665-2.57 7.124-28.461 7.789-31.03 1.323-5.119-7.978-13.512-12.655-11.833z"/></g><path d="m278.657 167.953c-1.097 1.481-8.065 10.907-16.239 21.964-5.557-4.103-10.04-7.414-11.287-8.333-8.503-6.263-13.379 15.03-7.108 19.65.713.525 3.206 2.368 6.485 4.791-8.666 11.721-16.248 21.976-17.395 23.527-6.274 8.489 15.06 13.354 19.688 7.095.758-1.026 6.772-9.161 13.829-18.707 4.069 3.008 7.292 5.388 8.119 5.997 6.271 4.62 25.219-6.309 16.718-12.572-1.368-1.006-6.625-4.887-12.922-9.538 6.563-8.879 11.99-16.219 12.708-17.189 4.628-6.26-6.322-25.172-12.596-16.685z" fill="#7e72d8"/><path d="m209.592 184.464-.003-.035-11.854 1.035c1.387-4.886 2.347-8.266 2.538-8.934 2.332-8.176-15.148-5.831-16.869.2-.142.496-1.273 4.483-2.907 10.239l-19.995 1.746c-8.532.745-.055 16.294 6.237 15.745l9.02-.788c-4.762 16.785-10.067 35.49-10.545 37.165-2.333 8.175 15.148 5.83 16.867-.2.33-1.152 5.989-21.105 10.916-38.47l12.565-1.097 1.983 22.62-6.161.538c-9.749.851-.063 18.62 7.13 17.992l5.602-.489-.001-.007c5.473-.605 13.099-6.428 12.683-11.17l-3.267-37.272c-.403-4.602-8.444-8.892-13.939-8.818z" fill="#ff7dbb"/></svg>
