<svg fill="none" height="18" viewBox="0 0 71 18" width="71" xmlns="http://www.w3.org/2000/svg"><rect fill="#313131" height="18" rx="2" width="71"/><g fill="#fff"><path d="m10.0996 11.8232h3.1104v1.1768h-4.57523v-7.10938h1.46483z"/><path d="m15.6123 13h-1.4648v-7.10938h1.4648z"/><path d="m22.7559 13h-1.4649l-2.8515-4.67773v4.67773h-1.4649v-7.10938h1.4649l2.8564 4.68748v-4.68748h1.46z"/><path d="m28.3125 9.91895h-2.8125v1.90425h3.3008v1.1768h-4.7656v-7.10938h4.7558v1.18653h-3.291v1.69433h2.8125z"/><path d="m35.8369 11.1348c0-.2767-.0976-.4883-.293-.6348-.1953-.1497-.5468-.306-1.0546-.4688-.5079-.16597-.9099-.32873-1.2061-.48823-.8073-.4362-1.2109-1.02376-1.2109-1.7627 0-.38411.1074-.72591.3222-1.02539.2181-.30273.529-.53873.9326-.708.4069-.16928.8627-.25391 1.3672-.25391.5078 0 .9603.09277 1.3575.27832.3971.18229.7047.44108.9228.77637.2214.33528.332.71614.332 1.14257h-1.4648c0-.32552-.1025-.5778-.3076-.75683-.2051-.18229-.4932-.27344-.8643-.27344-.3581 0-.6364.0765-.8349.22949-.1986.14974-.2979.34831-.2979.59571 0 .23112.1156.4248.3467.58105.2344.15625.5778.30274 1.0303.43945.8333.25066 1.4404.56153 1.8213.93262.3808.37112.5712.83332.5712 1.38672 0 .6152-.2327 1.0986-.6982 1.4502-.4655.3483-1.0921.5225-1.8799.5225-.5469 0-1.0449-.0993-1.4941-.2979-.4492-.2018-.7927-.4769-1.0303-.8252-.2344-.3483-.3516-.7519-.3516-1.2109h1.4698c0 .7845.4687 1.1767 1.4062 1.1767.3483 0 .6201-.07.8154-.2099.1954-.1433.293-.3418.293-.5957z"/><path d="m43.6543 7.07715h-2.1777v5.92285h-1.4649v-5.92285h-2.1484v-1.18653h5.791z"/><path d="m50.1973 9.60645c0 .69985-.1237 1.31345-.3711 1.84085-.2474.5273-.6022.9342-1.0645 1.2207-.459.2864-.9863.4297-1.582.4297-.5892 0-1.1149-.1416-1.5772-.4248-.4622-.2833-.8203-.6869-1.0742-1.211-.2539-.5273-.3825-1.1328-.3857-1.81639v-.35156c0-.69987.1253-1.31511.376-1.84571.2539-.53385.6103-.94238 1.0693-1.22558.4622-.28646.9896-.42969 1.582-.42969.5925 0 1.1182.14323 1.5772.42969.4622.2832.8187.69173 1.0693 1.22558.2539.5306.3809 1.14421.3809 1.84082zm-1.4844-.32227c0-.74544-.1335-1.31185-.4004-1.69922s-.6478-.58105-1.1426-.58105c-.4915 0-.8707.19205-1.1377.57617-.2669.38086-.402.94075-.4052 1.67969v.34668c0 .72595.1334 1.28905.4003 1.68945.267.4004.6511.6006 1.1524.6006.4915 0 .8691-.1921 1.1328-.5762.2637-.3874.3971-.9505.4004-1.68944z"/><path d="m53.8936 10.3975h-1.167v2.6025h-1.4649v-7.10938h2.6416c.8399 0 1.4877.18718 1.9434.56153s.6836.90332.6836 1.58691c0 .48503-.1058.8903-.3174 1.21582-.2083.32227-.5257.57943-.9522.77152l1.5381 2.9052v.0684h-1.5722zm-1.167-1.18656h1.1816c.3678 0 .6527-.09278.8545-.27832.2018-.1888.3027-.44759.3027-.77637 0-.33529-.096-.59896-.2881-.79102-.1888-.19205-.4801-.28808-.874-.28808h-1.1767z"/><path d="m61.9258 9.91895h-2.8125v1.90425h3.3008v1.1768h-4.7657v-7.10938h4.7559v1.18653h-3.291v1.69433h2.8125z"/></g><path d="m10.0996 11.8232h3.1104v1.1768h-4.57523v-7.10938h1.46483z" fill="#00b800"/><path d="m15.6123 13h-1.4648v-7.10938h1.4648z" fill="#00b800"/><path d="m22.7559 13h-1.4649l-2.8515-4.67773v4.67773h-1.4649v-7.10938h1.4649l2.8564 4.68748v-4.68748h1.46z" fill="#00b800"/><path d="m28.3125 9.91895h-2.8125v1.90425h3.3008v1.1768h-4.7656v-7.10938h4.7558v1.18653h-3.291v1.69433h2.8125z" fill="#00b800"/></svg>