<svg width="89" height="18" viewBox="0 0 89 18" fill="none" xmlns="http://www.w3.org/2000/svg"><rect width="89" height="18" rx="2" fill="url(#paint0_linear)"/><path d="M12.6055 10.1348C12.6055 9.85807 12.5078 9.64648 12.3125 9.5C12.1172 9.35026 11.7656 9.19401 11.2578 9.03125C10.75 8.86523 10.348 8.70247 10.0518 8.54297C9.24447 8.10677 8.84082 7.51921 8.84082 6.78027C8.84082 6.39616 8.94824 6.05436 9.16309 5.75488C9.38118 5.45215 9.69206 5.21615 10.0957 5.04688C10.5026 4.8776 10.9583 4.79297 11.4629 4.79297C11.9707 4.79297 12.4232 4.88574 12.8203 5.07129C13.2174 5.25358 13.5251 5.51237 13.7432 5.84766C13.9645 6.18294 14.0752 6.5638 14.0752 6.99023H12.6104C12.6104 6.66471 12.5078 6.41243 12.3027 6.2334C12.0977 6.05111 11.8096 5.95996 11.4385 5.95996C11.0804 5.95996 10.8021 6.03646 10.6035 6.18945C10.4049 6.33919 10.3057 6.53776 10.3057 6.78516C10.3057 7.01628 10.4212 7.20996 10.6523 7.36621C10.8867 7.52246 11.2301 7.66895 11.6826 7.80566C12.516 8.05632 13.123 8.36719 13.5039 8.73828C13.8848 9.10938 14.0752 9.57161 14.0752 10.125C14.0752 10.7402 13.8424 11.2236 13.377 11.5752C12.9115 11.9235 12.2848 12.0977 11.4971 12.0977C10.9502 12.0977 10.4521 11.9984 10.0029 11.7998C9.55371 11.598 9.21029 11.3229 8.97266 10.9746C8.73828 10.6263 8.62109 10.2227 8.62109 9.76367H10.0908C10.0908 10.5482 10.5596 10.9404 11.4971 10.9404C11.8454 10.9404 12.1172 10.8704 12.3125 10.7305C12.5078 10.5872 12.6055 10.3887 12.6055 10.1348ZM19.7344 9.40723C19.7344 10.221 19.5488 10.8737 19.1777 11.3652C18.8099 11.8535 18.3118 12.0977 17.6836 12.0977C17.1497 12.0977 16.7184 11.9121 16.3896 11.541V14.0312H14.9785V6.7168H16.2871L16.3359 7.23438C16.6777 6.82422 17.1237 6.61914 17.6738 6.61914C18.3249 6.61914 18.8311 6.86003 19.1924 7.3418C19.5537 7.82357 19.7344 8.48763 19.7344 9.33398V9.40723ZM18.3232 9.30469C18.3232 8.81315 18.2354 8.43392 18.0596 8.16699C17.887 7.90007 17.6348 7.7666 17.3027 7.7666C16.86 7.7666 16.5557 7.93587 16.3896 8.27441V10.4375C16.5622 10.7858 16.8698 10.96 17.3125 10.96C17.9863 10.96 18.3232 10.4082 18.3232 9.30469ZM23.0449 12.0977C22.2702 12.0977 21.6387 11.86 21.1504 11.3848C20.6654 10.9095 20.4229 10.2764 20.4229 9.48535V9.34863C20.4229 8.81803 20.5254 8.3444 20.7305 7.92773C20.9355 7.50781 21.2253 7.18555 21.5996 6.96094C21.9772 6.73307 22.4069 6.61914 22.8887 6.61914C23.6113 6.61914 24.1794 6.84701 24.5928 7.30273C25.0094 7.75846 25.2178 8.40462 25.2178 9.24121V9.81738H21.8535C21.8991 10.1624 22.0358 10.4391 22.2637 10.6475C22.4948 10.8558 22.7861 10.96 23.1377 10.96C23.6813 10.96 24.1061 10.763 24.4121 10.3691L25.1055 11.1455C24.8939 11.445 24.6074 11.6794 24.2461 11.8486C23.8848 12.0146 23.4844 12.0977 23.0449 12.0977ZM22.8838 7.76172C22.6038 7.76172 22.376 7.85612 22.2002 8.04492C22.0277 8.23372 21.917 8.50391 21.8682 8.85547H23.8311V8.74316C23.8245 8.43066 23.7399 8.18978 23.5771 8.02051C23.4144 7.84798 23.1833 7.76172 22.8838 7.76172ZM28.2207 10.96C28.4811 10.96 28.6927 10.8883 28.8555 10.7451C29.0182 10.6019 29.1029 10.4115 29.1094 10.1738H30.4326C30.4294 10.5319 30.3317 10.8607 30.1396 11.1602C29.9476 11.4564 29.6839 11.6875 29.3486 11.8535C29.0166 12.0163 28.6488 12.0977 28.2451 12.0977C27.4899 12.0977 26.8942 11.8584 26.458 11.3799C26.0218 10.8981 25.8037 10.234 25.8037 9.3877V9.29492C25.8037 8.48112 26.0202 7.83171 26.4531 7.34668C26.8861 6.86165 27.4801 6.61914 28.2354 6.61914C28.8962 6.61914 29.4251 6.80794 29.8223 7.18555C30.2227 7.5599 30.4261 8.05957 30.4326 8.68457H29.1094C29.1029 8.41113 29.0182 8.18978 28.8555 8.02051C28.6927 7.84798 28.4779 7.76172 28.2109 7.76172C27.8822 7.76172 27.6331 7.88216 27.4639 8.12305C27.2979 8.36068 27.2148 8.74805 27.2148 9.28516V9.43164C27.2148 9.97526 27.2979 10.3659 27.4639 10.6035C27.6299 10.8411 27.8822 10.96 28.2207 10.96ZM32.7275 12H31.3115V6.7168H32.7275V12ZM31.2285 5.34961C31.2285 5.13802 31.2985 4.96387 31.4385 4.82715C31.5817 4.69043 31.7754 4.62207 32.0195 4.62207C32.2604 4.62207 32.4525 4.69043 32.5957 4.82715C32.7389 4.96387 32.8105 5.13802 32.8105 5.34961C32.8105 5.56445 32.7373 5.74023 32.5908 5.87695C32.4476 6.01367 32.2572 6.08203 32.0195 6.08203C31.7819 6.08203 31.5898 6.01367 31.4434 5.87695C31.3001 5.74023 31.2285 5.56445 31.2285 5.34961ZM36.9561 12C36.891 11.873 36.8438 11.7152 36.8145 11.5264C36.4727 11.9072 36.0283 12.0977 35.4814 12.0977C34.9639 12.0977 34.5342 11.9479 34.1924 11.6484C33.8538 11.349 33.6846 10.9714 33.6846 10.5156C33.6846 9.95573 33.8913 9.52604 34.3047 9.22656C34.7214 8.92708 35.3219 8.77572 36.1064 8.77246H36.7559V8.46973C36.7559 8.22559 36.6924 8.03027 36.5654 7.88379C36.4417 7.7373 36.2448 7.66406 35.9746 7.66406C35.737 7.66406 35.5498 7.72103 35.4131 7.83496C35.2796 7.94889 35.2129 8.10514 35.2129 8.30371H33.8018C33.8018 7.99772 33.8962 7.71452 34.085 7.4541C34.2738 7.19368 34.5407 6.99023 34.8857 6.84375C35.2308 6.69401 35.6182 6.61914 36.0479 6.61914C36.6989 6.61914 37.2148 6.78353 37.5957 7.1123C37.9798 7.43783 38.1719 7.89681 38.1719 8.48926V10.7793C38.1751 11.2806 38.2451 11.6598 38.3818 11.917V12H36.9561ZM35.7891 11.0186C35.9974 11.0186 36.1895 10.973 36.3652 10.8818C36.541 10.7874 36.6712 10.6621 36.7559 10.5059V9.59766H36.2285C35.5221 9.59766 35.1462 9.8418 35.1006 10.3301L35.0957 10.4131C35.0957 10.5889 35.1576 10.7337 35.2812 10.8477C35.4049 10.9616 35.5742 11.0186 35.7891 11.0186ZM40.7451 12H39.3291V4.5H40.7451V12ZM48.1816 10.1348C48.1816 9.85807 48.084 9.64648 47.8887 9.5C47.6934 9.35026 47.3418 9.19401 46.834 9.03125C46.3262 8.86523 45.9242 8.70247 45.6279 8.54297C44.8206 8.10677 44.417 7.51921 44.417 6.78027C44.417 6.39616 44.5244 6.05436 44.7393 5.75488C44.9574 5.45215 45.2682 5.21615 45.6719 5.04688C46.0788 4.8776 46.5345 4.79297 47.0391 4.79297C47.5469 4.79297 47.9993 4.88574 48.3965 5.07129C48.7936 5.25358 49.1012 5.51237 49.3193 5.84766C49.5407 6.18294 49.6514 6.5638 49.6514 6.99023H48.1865C48.1865 6.66471 48.084 6.41243 47.8789 6.2334C47.6738 6.05111 47.3857 5.95996 47.0146 5.95996C46.6566 5.95996 46.3783 6.03646 46.1797 6.18945C45.9811 6.33919 45.8818 6.53776 45.8818 6.78516C45.8818 7.01628 45.9974 7.20996 46.2285 7.36621C46.4629 7.52246 46.8063 7.66895 47.2588 7.80566C48.0921 8.05632 48.6992 8.36719 49.0801 8.73828C49.4609 9.10938 49.6514 9.57161 49.6514 10.125C49.6514 10.7402 49.4186 11.2236 48.9531 11.5752C48.4876 11.9235 47.861 12.0977 47.0732 12.0977C46.5264 12.0977 46.0283 11.9984 45.5791 11.7998C45.1299 11.598 44.7865 11.3229 44.5488 10.9746C44.3145 10.6263 44.1973 10.2227 44.1973 9.76367H45.667C45.667 10.5482 46.1357 10.9404 47.0732 10.9404C47.4215 10.9404 47.6934 10.8704 47.8887 10.7305C48.084 10.5872 48.1816 10.3887 48.1816 10.1348ZM52.2441 5.41797V6.7168H53.1475V7.75195H52.2441V10.3887C52.2441 10.584 52.2816 10.724 52.3564 10.8086C52.4313 10.8932 52.5745 10.9355 52.7861 10.9355C52.9424 10.9355 53.0807 10.9242 53.2012 10.9014V11.9707C52.9245 12.0553 52.6396 12.0977 52.3467 12.0977C51.3571 12.0977 50.8525 11.598 50.833 10.5986V7.75195H50.0615V6.7168H50.833V5.41797H52.2441ZM55.4229 12H54.0068V6.7168H55.4229V12ZM53.9238 5.34961C53.9238 5.13802 53.9938 4.96387 54.1338 4.82715C54.277 4.69043 54.4707 4.62207 54.7148 4.62207C54.9557 4.62207 55.1478 4.69043 55.291 4.82715C55.4342 4.96387 55.5059 5.13802 55.5059 5.34961C55.5059 5.56445 55.4326 5.74023 55.2861 5.87695C55.1429 6.01367 54.9525 6.08203 54.7148 6.08203C54.4772 6.08203 54.2852 6.01367 54.1387 5.87695C53.9954 5.74023 53.9238 5.56445 53.9238 5.34961ZM58.7871 10.96C59.0475 10.96 59.2591 10.8883 59.4219 10.7451C59.5846 10.6019 59.6693 10.4115 59.6758 10.1738H60.999C60.9958 10.5319 60.8981 10.8607 60.7061 11.1602C60.514 11.4564 60.2503 11.6875 59.915 11.8535C59.583 12.0163 59.2152 12.0977 58.8115 12.0977C58.0563 12.0977 57.4606 11.8584 57.0244 11.3799C56.5882 10.8981 56.3701 10.234 56.3701 9.3877V9.29492C56.3701 8.48112 56.5866 7.83171 57.0195 7.34668C57.4525 6.86165 58.0465 6.61914 58.8018 6.61914C59.4626 6.61914 59.9915 6.80794 60.3887 7.18555C60.7891 7.5599 60.9925 8.05957 60.999 8.68457H59.6758C59.6693 8.41113 59.5846 8.18978 59.4219 8.02051C59.2591 7.84798 59.0443 7.76172 58.7773 7.76172C58.4486 7.76172 58.1995 7.88216 58.0303 8.12305C57.8643 8.36068 57.7812 8.74805 57.7812 9.28516V9.43164C57.7812 9.97526 57.8643 10.3659 58.0303 10.6035C58.1963 10.8411 58.4486 10.96 58.7871 10.96ZM63.7236 9.88086L63.2158 10.3887V12H61.8047V4.5H63.2158V8.65527L63.4893 8.30371L64.8418 6.7168H66.5361L64.627 8.91895L66.7021 12H65.0811L63.7236 9.88086ZM69.4805 12.0977C68.7057 12.0977 68.0742 11.86 67.5859 11.3848C67.1009 10.9095 66.8584 10.2764 66.8584 9.48535V9.34863C66.8584 8.81803 66.9609 8.3444 67.166 7.92773C67.3711 7.50781 67.6608 7.18555 68.0352 6.96094C68.4128 6.73307 68.8424 6.61914 69.3242 6.61914C70.0469 6.61914 70.6149 6.84701 71.0283 7.30273C71.445 7.75846 71.6533 8.40462 71.6533 9.24121V9.81738H68.2891C68.3346 10.1624 68.4714 10.4391 68.6992 10.6475C68.9303 10.8558 69.2217 10.96 69.5732 10.96C70.1169 10.96 70.5417 10.763 70.8477 10.3691L71.541 11.1455C71.3294 11.445 71.043 11.6794 70.6816 11.8486C70.3203 12.0146 69.9199 12.0977 69.4805 12.0977ZM69.3193 7.76172C69.0394 7.76172 68.8115 7.85612 68.6357 8.04492C68.4632 8.23372 68.3525 8.50391 68.3037 8.85547H70.2666V8.74316C70.2601 8.43066 70.1755 8.18978 70.0127 8.02051C69.8499 7.84798 69.6188 7.76172 69.3193 7.76172ZM75.4277 8.04004C75.2357 8.014 75.0664 8.00098 74.9199 8.00098C74.3861 8.00098 74.0361 8.18164 73.8701 8.54297V12H72.459V6.7168H73.792L73.8311 7.34668C74.1143 6.86165 74.5065 6.61914 75.0078 6.61914C75.1641 6.61914 75.3105 6.6403 75.4473 6.68262L75.4277 8.04004ZM78.9727 10.54C78.9727 10.3675 78.8864 10.2324 78.7139 10.1348C78.5446 10.0339 78.2712 9.94434 77.8936 9.86621C76.637 9.60254 76.0088 9.06868 76.0088 8.26465C76.0088 7.7959 76.2025 7.40527 76.5898 7.09277C76.9805 6.77702 77.4899 6.61914 78.1182 6.61914C78.7887 6.61914 79.3242 6.77702 79.7246 7.09277C80.1283 7.40853 80.3301 7.81868 80.3301 8.32324H78.9189C78.9189 8.12142 78.8538 7.9554 78.7236 7.8252C78.5934 7.69173 78.39 7.625 78.1133 7.625C77.8757 7.625 77.6917 7.67871 77.5615 7.78613C77.4313 7.89355 77.3662 8.03027 77.3662 8.19629C77.3662 8.35254 77.4395 8.47949 77.5859 8.57715C77.7357 8.67155 77.9863 8.75456 78.3379 8.82617C78.6895 8.89453 78.9857 8.97266 79.2266 9.06055C79.972 9.33398 80.3447 9.80762 80.3447 10.4814C80.3447 10.9632 80.138 11.3538 79.7246 11.6533C79.3112 11.9495 78.7773 12.0977 78.123 12.0977C77.6803 12.0977 77.2865 12.0195 76.9414 11.8633C76.5996 11.7038 76.3311 11.4873 76.1357 11.2139C75.9404 10.9372 75.8428 10.6393 75.8428 10.3203H77.1807C77.1937 10.571 77.2865 10.763 77.459 10.8965C77.6315 11.0299 77.8626 11.0967 78.1523 11.0967C78.4225 11.0967 78.626 11.0462 78.7627 10.9453C78.9027 10.8411 78.9727 10.7061 78.9727 10.54Z" fill="white"/><defs><linearGradient id="paint0_linear" x1="0" y1="0" x2="89.8797" y2="10.3902" gradientUnits="userSpaceOnUse"><stop stop-color="#FF91BE"/><stop offset="1" stop-color="#91C3FF"/></linearGradient></defs></svg>
