<svg width="40" height="32" viewBox="0 0 40 32" fill="none" xmlns="http://www.w3.org/2000/svg"><mask id="a" mask-type="alpha" maskUnits="userSpaceOnUse" x="2" y="24" width="38" height="8"><path d="M2.528 30.232C2.528 30.552 2.496 31.032 2.448 31.352H3.696C3.664 31.024 3.624 30.464 3.624 30.232V27.968C4.488 28.264 5.688 28.728 6.512 29.16L6.968 28.056C6.232 27.696 4.696 27.128 3.624 26.816V25.632C3.624 25.304 3.664 24.952 3.696 24.672H2.448C2.504 24.952 2.528 25.352 2.528 25.632V30.232ZM14.432 24.792H13.224C13.256 25.016 13.272 25.272 13.272 25.592V27.112C13.272 28.36 13.168 28.96 12.616 29.56C12.136 30.08 11.488 30.384 10.696 30.568L11.528 31.448C12.112 31.264 12.944 30.872 13.472 30.296C14.064 29.64 14.4 28.896 14.4 27.176V25.592C14.4 25.272 14.416 25.016 14.432 24.792ZM10.72 24.856H9.568C9.592 25.04 9.6 25.32 9.6 25.472V28.168C9.6 28.408 9.568 28.72 9.56 28.872H10.72C10.704 28.688 10.696 28.376 10.696 28.176V25.472C10.696 25.216 10.704 25.04 10.72 24.856ZM18.28 24.736L17.904 25.68C19.032 25.824 21.304 26.336 22.232 26.68L22.64 25.68C21.632 25.328 19.328 24.864 18.28 24.736ZM17.912 26.888L17.544 27.856C18.736 28.048 20.784 28.512 21.704 28.864L22.096 27.864C21.088 27.512 19.056 27.08 17.912 26.888ZM17.504 29.176L17.104 30.184C18.384 30.376 20.912 30.928 21.992 31.376L22.432 30.376C21.336 29.968 18.872 29.392 17.504 29.176ZM25.92 24.92L25.168 25.72C25.752 26.128 26.752 27 27.168 27.448L27.984 26.616C27.52 26.128 26.48 25.296 25.92 24.92ZM24.92 30.248L25.592 31.304C26.72 31.112 27.752 30.664 28.56 30.176C29.848 29.4 30.912 28.296 31.52 27.216L30.896 26.088C30.392 27.168 29.352 28.392 27.984 29.2C27.208 29.664 26.168 30.072 24.92 30.248ZM38.216 24.448L37.584 24.704C37.784 24.992 38.008 25.416 38.168 25.736L38.112 25.704C37.936 25.76 37.664 25.8 37.416 25.8H35.816C35.824 25.784 35.832 25.776 35.84 25.76C35.928 25.584 36.136 25.224 36.328 24.944L35.152 24.56C35.08 24.832 34.912 25.2 34.792 25.392C34.4 26.08 33.696 27.12 32.296 27.968L33.192 28.64C33.984 28.104 34.68 27.4 35.216 26.704H37.464C37.336 27.296 36.872 28.264 36.328 28.88C35.624 29.68 34.736 30.376 33.104 30.864L34.048 31.712C35.552 31.112 36.512 30.384 37.272 29.448C38 28.56 38.456 27.496 38.672 26.784C38.736 26.584 38.848 26.36 38.936 26.208L38.256 25.792L38.848 25.544C38.704 25.248 38.416 24.736 38.216 24.448ZM39.16 24.088L38.528 24.344C38.752 24.648 39.008 25.112 39.176 25.448L39.808 25.176C39.664 24.896 39.368 24.384 39.16 24.088Z" fill="#B4B4B4"/></mask><g mask="url(#a)"><rect width="40" height="32" fill="url(#c)"/></g><mask id="b" mask-type="alpha" maskUnits="userSpaceOnUse" x="9" y="0" width="22" height="22"><path fill-rule="evenodd" clip-rule="evenodd" d="M13 1C13 0.447716 13.4477 0 14 0C14.5523 0 15 0.447715 15 1V4H26C26.5523 4 27 4.44772 27 5V16H30C30.5523 16 31 16.4477 31 17C31 17.5523 30.5523 18 30 18H27V21C27 21.5523 26.5523 22 26 22C25.4477 22 25 21.5523 25 21V18H14C13.4477 18 13 17.5523 13 17V6H10C9.44772 6 9 5.55228 9 5C9 4.44772 9.44772 4 10 4H13V1ZM15 6H25V16H15V6ZM25 1C25 0.447715 25.4477 0 26 0H30C30.5523 0 31 0.447715 31 1V5C31 5.55228 30.5523 6 30 6C29.4477 6 29 5.55228 29 5V2H26C25.4477 2 25 1.55228 25 1ZM9 17V21C9 21.5523 9.44772 22 10 22H14C14.5523 22 15 21.5523 15 21C15 20.4477 14.5523 20 14 20H11V17C11 16.4477 10.5523 16 10 16C9.44772 16 9 16.4477 9 17Z" fill="#CCCCCC"/></mask><g mask="url(#b)"><rect width="40" height="32" fill="url(#d)"/></g><defs><linearGradient id="c" x1="0" y1="0" x2="31.2195" y2="39.0244" gradientUnits="userSpaceOnUse"><stop stop-color="#FF91BE"/><stop offset="1" stop-color="#91C3FF"/></linearGradient><linearGradient id="d" x1="0" y1="0" x2="31.2195" y2="39.0244" gradientUnits="userSpaceOnUse"><stop stop-color="#FF91BE"/><stop offset="1" stop-color="#91C3FF"/></linearGradient></defs></svg>