<svg width="40" height="32" viewBox="0 0 40 32" fill="none" xmlns="http://www.w3.org/2000/svg"><mask id="a" mask-type="alpha" maskUnits="userSpaceOnUse" x="4" y="24" width="32" height="8"><path d="M10.436 30.328H5.604V26.12H4.676V31.696H5.604V31.224H10.436V31.688H11.356V26.12H10.436V30.328ZM9.092 27.68H8.396V27.008H9.092V27.68ZM9.092 29.08H8.396V28.4H9.092V29.08ZM6.884 28.4H7.58V29.08H6.884V28.4ZM6.884 27.008H7.58V27.68H6.884V27.008ZM4.436 24.704V25.592H7.508V26.232H6.108V29.856H9.916V26.232H8.46V25.592H11.596V24.704H4.436Z" fill="#B4B4B4"/><path d="M13.7 24.232C13.348 25.408 12.756 26.576 12.116 27.32C12.268 27.568 12.5 28.12 12.572 28.344C12.74 28.152 12.908 27.928 13.068 27.688V31.688H13.972V26.048C14.204 25.536 14.412 25.008 14.58 24.496L13.7 24.232ZM15.532 26.472H16.564V27.08H15.532V26.472ZM17.132 25.4C17.036 25.552 16.924 25.704 16.82 25.824H15.58C15.7 25.688 15.812 25.544 15.924 25.4H17.132ZM18.556 27.08H17.412V26.472H18.556V27.08ZM16.676 30.76C16.572 30.888 16.444 30.92 16.284 30.92C16.14 30.92 15.956 30.912 15.748 30.888C16.14 30.672 16.524 30.416 16.868 30.168C16.86 30.44 16.788 30.656 16.676 30.76ZM19.1 27.88C18.9 28.096 18.604 28.368 18.324 28.6C18.22 28.32 18.14 28.024 18.068 27.72H19.468V25.824H17.828C18.02 25.576 18.204 25.304 18.356 25.056L17.796 24.656L17.628 24.712H16.396C16.46 24.608 16.524 24.496 16.58 24.392L15.684 24.232C15.388 24.824 14.844 25.528 14.092 26.056C14.268 26.144 14.508 26.32 14.676 26.48V27.72H15.892C15.388 28 14.804 28.224 14.244 28.384C14.404 28.528 14.652 28.848 14.772 29C15.172 28.856 15.604 28.664 16.012 28.432C16.084 28.496 16.148 28.56 16.204 28.624C15.676 28.984 14.908 29.336 14.3 29.512C14.452 29.664 14.636 29.928 14.732 30.104C15.316 29.872 16.012 29.496 16.572 29.112C16.62 29.208 16.668 29.296 16.708 29.392C16.06 29.936 15.02 30.488 14.164 30.744C14.348 30.92 14.556 31.216 14.668 31.416C14.996 31.28 15.348 31.112 15.7 30.912C15.828 31.152 15.884 31.464 15.9 31.68C16.1 31.696 16.3 31.704 16.46 31.704C16.812 31.688 17.06 31.616 17.308 31.376C17.916 30.848 17.94 29.144 16.652 28.048C16.812 27.944 16.964 27.832 17.1 27.72H17.26C17.596 29.336 18.172 30.656 19.236 31.376C19.364 31.144 19.636 30.8 19.844 30.632C19.332 30.336 18.94 29.864 18.636 29.296C18.98 29.072 19.396 28.752 19.74 28.448L19.1 27.88Z" fill="#B4B4B4"/><path d="M22.684 24.472H20.636V25.192H22.684V24.472ZM22.9 25.544H20.26V26.296H22.9V25.544ZM22.708 26.656H20.588V27.384H22.708V26.656ZM20.588 28.464H22.708V27.752H20.588V28.464ZM24.308 27.16V27.856H26.388V27.16H25.7V26.616H26.332V25.928H25.7V25.408H24.956V25.928H24.34V26.616H24.956V27.16H24.308ZM25.636 28.952V29.704H25.028V28.952H25.636ZM26.324 30.384V28.264H24.356V30.656H25.028V30.384H26.324ZM21.932 30.52H21.3V29.6H21.932V30.52ZM27.508 24.512H23.212V27.488C23.212 28.592 23.172 30.04 22.692 31.08V28.856H20.564V31.584H21.3V31.264H22.692C22.9 31.368 23.22 31.592 23.356 31.736C23.98 30.584 24.076 28.76 24.076 27.488V25.32H26.628V30.616C26.628 30.736 26.596 30.768 26.484 30.768C26.364 30.768 25.996 30.776 25.668 30.76C25.788 31.008 25.908 31.432 25.932 31.688C26.5 31.688 26.892 31.672 27.164 31.512C27.436 31.36 27.508 31.088 27.508 30.624V24.512Z" fill="#B4B4B4"/><path d="M30.972 27.544H29.7V27.192H30.972V27.544ZM29.7 28.608V28.224H30.972V28.608H29.7ZM35.596 24.864H33.332C33.412 24.704 33.476 24.544 33.54 24.384L32.644 24.16C32.468 24.64 32.196 25.104 31.868 25.488V24.864H30.076C30.156 24.704 30.228 24.552 30.284 24.392L29.404 24.16C29.156 24.84 28.7 25.528 28.212 25.952C28.428 26.072 28.804 26.32 28.98 26.472C29.212 26.224 29.46 25.912 29.684 25.568H29.756C29.94 25.872 30.1 26.216 30.18 26.48H28.82V30.512C28.62 30.544 28.428 30.568 28.26 30.584L28.404 31.424C29.18 31.296 30.196 31.136 31.196 30.968C31.292 31.16 31.372 31.336 31.42 31.488L32.204 31.096C32.02 30.592 31.572 29.88 31.108 29.36L30.364 29.704C30.5 29.864 30.628 30.048 30.756 30.232C30.396 30.288 30.044 30.344 29.7 30.392V29.32H31.868V26.48H30.34L30.98 26.192C30.924 26.008 30.82 25.792 30.7 25.568H31.796C31.676 25.696 31.548 25.816 31.42 25.92C31.636 26.04 32.02 26.296 32.196 26.456C32.444 26.216 32.7 25.912 32.924 25.568H33.244C33.468 25.864 33.684 26.216 33.796 26.48H32.348V31.6H33.236V27.344H34.484V29.768C34.484 29.864 34.444 29.896 34.324 29.896C34.212 29.904 33.812 29.904 33.452 29.888C33.564 30.128 33.692 30.512 33.724 30.76C34.308 30.76 34.716 30.752 35.004 30.608C35.308 30.472 35.388 30.224 35.388 29.784V26.48H34.004L34.644 26.224C34.564 26.032 34.42 25.8 34.252 25.568H35.596V24.864Z" fill="#B4B4B4"/></mask><g mask="url(#a)"><rect x="-3.8147e-06" width="40" height="32" fill="url(#c)"/></g><mask id="b" mask-type="alpha" maskUnits="userSpaceOnUse" x="9" y="0" width="22" height="22"><path fill-rule="evenodd" clip-rule="evenodd" d="M18.8293 2H30C30.5523 2 31 2.44772 31 3C31 3.55228 30.5523 4 30 4H18.8293C18.4175 5.16519 17.3062 6 16 6C14.6938 6 13.5825 5.16519 13.1707 4H10C9.44772 4 9 3.55228 9 3C9 2.44772 9.44772 2 10 2H13.1707C13.5825 0.834808 14.6938 0 16 0C17.3062 0 18.4175 0.834808 18.8293 2ZM10 10C9.44772 10 9 10.4477 9 11C9 11.5523 9.44772 12 10 12H21.1707C21.5825 13.1652 22.6938 14 24 14C25.3062 14 26.4175 13.1652 26.8293 12H30C30.5523 12 31 11.5523 31 11C31 10.4477 30.5523 10 30 10H26.8293C26.4175 8.83481 25.3062 8 24 8C22.6938 8 21.5825 8.83481 21.1707 10H10ZM9 19C9 18.4477 9.44772 18 10 18H13.1707C13.5825 16.8348 14.6938 16 16 16C17.3062 16 18.4175 16.8348 18.8293 18H30C30.5523 18 31 18.4477 31 19C31 19.5523 30.5523 20 30 20H18.8293C18.4175 21.1652 17.3062 22 16 22C14.6938 22 13.5825 21.1652 13.1707 20H10C9.44772 20 9 19.5523 9 19Z" fill="#B4B4B4"/></mask><g mask="url(#b)"><rect width="40" height="32" fill="url(#d)"/></g><defs><linearGradient id="c" x1="-3.8147e-06" y1="0" x2="31.2195" y2="39.0244" gradientUnits="userSpaceOnUse"><stop stop-color="#FF91BE"/><stop offset="1" stop-color="#91C3FF"/></linearGradient><linearGradient id="d" x1="0" y1="0" x2="31.2195" y2="39.0244" gradientUnits="userSpaceOnUse"><stop stop-color="#FF91BE"/><stop offset="1" stop-color="#91C3FF"/></linearGradient></defs></svg>