<svg width="40" height="32" viewBox="0 0 40 32" fill="none" xmlns="http://www.w3.org/2000/svg"><mask id="a" mask-type="alpha" maskUnits="userSpaceOnUse" x="1" y="24" width="38" height="8"><path d="M1.63138 25.32V26.432C1.85538 26.416 2.28738 26.4 2.62338 26.4H6.21538V29.712H2.52738C2.16738 29.712 1.80738 29.688 1.52738 29.664V30.808C1.79138 30.784 2.24738 30.76 2.55938 30.76H6.20738C6.20738 30.912 6.20738 31.048 6.19938 31.176H7.35938C7.34338 30.936 7.32738 30.512 7.32738 30.232V26.088C7.32738 25.856 7.34338 25.536 7.35138 25.352C7.21538 25.36 6.87938 25.368 6.64738 25.368H2.61538C2.34338 25.368 1.92738 25.352 1.63138 25.32ZM10.1514 24.864V25.896C10.3834 25.88 10.7274 25.872 10.9834 25.872H14.0474C14.3354 25.872 14.7114 25.88 14.9274 25.896V24.864C14.7034 24.896 14.3114 24.904 14.0634 24.904H10.9834C10.7114 24.904 10.3754 24.896 10.1514 24.864ZM15.5994 27.184L14.8874 26.744C14.7754 26.792 14.5594 26.824 14.3034 26.824H10.3434C10.0954 26.824 9.75138 26.8 9.41538 26.776V27.816C9.75138 27.784 10.1514 27.776 10.3434 27.776H14.2074C14.0634 28.224 13.8154 28.72 13.3834 29.16C12.7754 29.784 11.8154 30.312 10.6154 30.56L11.4074 31.464C12.4314 31.176 13.4554 30.632 14.2634 29.736C14.8634 29.072 15.2074 28.296 15.4474 27.52C15.4794 27.432 15.5434 27.288 15.5994 27.184ZM17.0954 27.296V28.552C17.3914 28.528 17.9274 28.512 18.3834 28.512H22.6794C23.0154 28.512 23.4234 28.544 23.6154 28.552V27.296C23.4074 27.312 23.0554 27.344 22.6794 27.344H18.3834C17.9674 27.344 17.3834 27.32 17.0954 27.296ZM30.0351 24.856L29.3631 25.136C29.6511 25.544 29.8351 25.888 30.0671 26.392L30.7631 26.096C30.5791 25.728 30.2591 25.192 30.0351 24.856ZM31.1311 24.472L30.4511 24.752C30.7471 25.152 30.9471 25.464 31.2031 25.968L31.8831 25.664C31.6911 25.312 31.3791 24.792 31.1311 24.472ZM26.5551 24.704L25.9791 25.584C26.5071 25.88 27.3391 26.416 27.7871 26.728L28.3791 25.848C27.9631 25.552 27.0831 24.992 26.5551 24.704ZM25.0751 30.384L25.6751 31.432C26.3791 31.304 27.5311 30.904 28.3471 30.448C29.6511 29.688 30.7871 28.68 31.5231 27.568L30.9071 26.48C30.2751 27.624 29.1551 28.72 27.7951 29.48C26.9311 29.96 25.9711 30.232 25.0751 30.384ZM25.3231 26.528L24.7471 27.408C25.2831 27.696 26.1151 28.232 26.5711 28.552L27.1551 27.656C26.7471 27.368 25.8671 26.816 25.3231 26.528ZM37.6966 27.184L36.9206 26.808C36.8246 26.864 36.4966 26.896 36.3286 26.896H34.2806C34.0646 26.896 33.6966 26.872 33.4886 26.848V27.904C33.7206 27.888 34.0326 27.864 34.2886 27.864H36.4486C36.4246 28.312 36.2486 29.448 36.1366 30.128H33.5446C33.2646 30.128 32.9686 30.112 32.7526 30.088V31.128C33.0566 31.112 33.2566 31.104 33.5446 31.104H37.7526C37.9686 31.104 38.3606 31.12 38.5206 31.128V30.096C38.3126 30.12 37.9446 30.128 37.7366 30.128H37.2246C37.3446 29.368 37.5526 27.992 37.6166 27.52C37.6326 27.44 37.6566 27.288 37.6966 27.184Z" fill="url(#c)"/></mask><g mask="url(#a)"><rect width="40" height="32" fill="url(#d)"/></g><mask id="b" mask-type="alpha" maskUnits="userSpaceOnUse" x="12" y="0" width="17" height="22"><path fill-rule="evenodd" clip-rule="evenodd" d="M14 2V10.9745L26.5 7.39021V2H14ZM12 21V11.548V1C12 0.447716 12.4477 0 13 0H27.5C28.0523 0 28.5 0.447715 28.5 1V21C28.5 21.5523 28.0523 22 27.5 22H13C12.4477 22 12 21.5523 12 21ZM18.3835 11.7982L14 13.0551V20H21.0484L18.3835 11.7982ZM20.3072 11.2466L23.1513 20H26.5V9.47081L20.3072 11.2466Z" fill="black"/></mask><g mask="url(#b)"><rect width="40" height="32" fill="url(#paint2_linear)"/></g><defs><linearGradient id="c" x1="0" y1="24" x2="3.07692" y2="39.3846" gradientUnits="userSpaceOnUse"><stop stop-color="#FF91BE"/><stop offset="1" stop-color="#91C3FF"/></linearGradient><linearGradient id="d" x1="0" y1="0" x2="31.2195" y2="39.0244" gradientUnits="userSpaceOnUse"><stop stop-color="#FF91BE"/><stop offset="1" stop-color="#91C3FF"/></linearGradient><linearGradient id="paint2_linear" x1="0" y1="0" x2="31.2195" y2="39.0244" gradientUnits="userSpaceOnUse"><stop stop-color="#FF91BE"/><stop offset="1" stop-color="#91C3FF"/></linearGradient></defs></svg>