<svg width="40" height="32" viewBox="0 0 40 32" fill="none" xmlns="http://www.w3.org/2000/svg"><mask id="a" mask-type="alpha" maskUnits="userSpaceOnUse" x="4" y="24" width="32" height="8"><path d="M10.7931 25.576L10.1371 25.088C9.97713 25.144 9.65713 25.192 9.31313 25.192H6.48913C6.24913 25.192 5.76113 25.168 5.54513 25.136V26.272C5.71313 26.264 6.15313 26.216 6.48913 26.216H9.20113C9.02513 26.784 8.53713 27.576 8.00913 28.176C7.25713 29.016 6.01713 29.992 4.72913 30.472L5.55313 31.336C6.64913 30.816 7.71313 29.984 8.56113 29.088C9.31313 29.816 10.0571 30.632 10.5771 31.352L11.4891 30.56C11.0171 29.984 10.0491 28.96 9.25713 28.272C9.79313 27.552 10.2411 26.696 10.5131 26.072C10.5851 25.912 10.7291 25.664 10.7931 25.576Z" fill="black"/><path d="M16.6731 24.664L15.5131 24.304C15.4411 24.576 15.2731 24.944 15.1451 25.136C14.7451 25.832 14.0011 26.928 12.6011 27.8L13.4651 28.464C14.2731 27.904 15.0171 27.136 15.5771 26.392H17.8651C17.7451 26.888 17.4011 27.584 16.9851 28.16C16.4811 27.824 15.9771 27.496 15.5531 27.256L14.8411 27.984C15.2491 28.24 15.7771 28.6 16.2971 28.984C15.6331 29.648 14.7451 30.296 13.3611 30.72L14.2891 31.528C15.5371 31.056 16.4491 30.376 17.1531 29.632C17.4811 29.896 17.7771 30.144 17.9931 30.344L18.7531 29.44C18.5211 29.248 18.2091 29.016 17.8651 28.768C18.4331 27.968 18.8331 27.112 19.0491 26.464C19.1211 26.264 19.2251 26.048 19.3131 25.896L18.4971 25.392C18.3211 25.448 18.0491 25.48 17.8011 25.48H16.1771C16.2731 25.304 16.4731 24.944 16.6731 24.664Z" fill="black"/><path d="M22.0491 24.92L21.2971 25.72C21.8811 26.128 22.8811 27 23.2971 27.448L24.1131 26.616C23.6491 26.128 22.6091 25.296 22.0491 24.92ZM21.0491 30.248L21.7211 31.304C22.8491 31.112 23.8811 30.664 24.6891 30.176C25.9771 29.4 27.0411 28.296 27.6491 27.216L27.0251 26.088C26.5211 27.168 25.4811 28.392 24.1131 29.2C23.3371 29.664 22.2971 30.072 21.0491 30.248Z" fill="black"/><path d="M34.3109 25.136C34.3109 24.88 34.5189 24.672 34.7749 24.672C35.0229 24.672 35.2309 24.88 35.2309 25.136C35.2309 25.384 35.0229 25.592 34.7749 25.592C34.5189 25.592 34.3109 25.384 34.3109 25.136ZM33.8149 25.136C33.8149 25.192 33.8229 25.24 33.8309 25.288C33.6629 25.312 33.4869 25.32 33.3749 25.32H29.6709C29.4069 25.32 28.9509 25.288 28.7189 25.256V26.384C28.9189 26.368 29.3029 26.352 29.6709 26.352H33.3909C33.2869 27.04 32.9829 27.944 32.4549 28.608C31.8069 29.424 30.9029 30.12 29.3189 30.488L30.1909 31.448C31.6149 30.984 32.6869 30.192 33.4069 29.232C34.0789 28.344 34.4229 27.104 34.6069 26.32C34.6309 26.248 34.6469 26.168 34.6709 26.08C34.7029 26.088 34.7429 26.088 34.7749 26.088C35.2949 26.088 35.7269 25.656 35.7269 25.136C35.7269 24.608 35.2949 24.176 34.7749 24.176C34.2469 24.176 33.8149 24.608 33.8149 25.136Z" fill="black"/></mask><g mask="url(#a)"><rect width="40" height="32" fill="url(#c)"/></g><mask id="b" mask-type="alpha" maskUnits="userSpaceOnUse" x="9" y="0" width="22" height="22"><path d="M11.8308 21.9432C11.8125 21.8497 11.818 21.4298 11.84 21.3107C11.8932 21.0155 11.9574 20.8908 12.1499 20.6983C12.282 20.5682 12.3737 20.5022 12.7074 20.295C13.0907 20.0585 13.1127 20.042 13.2136 19.91C13.2704 19.8348 13.3493 19.723 13.3878 19.6625C13.4244 19.602 13.474 19.5232 13.4978 19.4883C13.8206 18.986 14.3524 18.1372 14.5028 17.8823C14.5981 17.721 14.7228 17.512 14.7815 17.4167C14.8402 17.3213 14.9319 17.1563 14.9887 17.05C15.1556 16.7328 15.2895 16.4908 15.4949 16.1352L15.6893 15.7978L15.6122 15.763C15.5609 15.7392 15.4417 15.6328 15.2565 15.444C15.1024 15.29 14.9741 15.1617 14.9685 15.1617C14.9282 15.1617 15.1446 15.642 15.2088 15.7007C15.2638 15.7483 15.262 15.8272 15.2033 15.8657C15.1409 15.9078 15.1153 15.9042 14.8897 15.8235C14.4679 15.6713 14.4202 15.6457 14.1928 15.4385C14.0571 15.3138 14.0094 15.2808 14.0058 15.3047C14.0021 15.3358 14.0645 15.664 14.1231 15.9078C14.1488 16.016 14.1507 16.0453 14.1305 16.0692C14.0791 16.1297 13.9196 16.093 13.6445 15.9573C13.5547 15.9115 13.4905 15.8858 13.5033 15.8968C13.573 15.9702 13.4758 16.0875 13.3621 16.0673C13.2539 16.049 12.9752 15.95 12.8395 15.8822C12.359 15.6402 11.9519 15.0663 11.6401 14.19C11.6071 14.0983 11.5723 14.3403 11.5741 14.6575C11.5759 15.18 11.6695 15.6035 11.8363 15.8382C11.9335 15.9738 11.8217 16.0747 11.6676 15.9922C11.6346 15.9738 11.5869 15.9518 11.5594 15.9408C11.5338 15.9317 11.4879 15.9042 11.4586 15.8822C11.3357 15.785 11.1395 15.6383 11.134 15.6383C11.1303 15.6383 11.123 15.6548 11.1175 15.675C11.1028 15.7337 11.0001 15.7227 10.9011 15.653C10.6077 15.4458 10.4114 15.2698 10.3124 15.125C10.0832 14.7932 9.86862 14.333 9.77509 13.9718L9.73475 13.8178L9.71274 13.937C9.64305 14.344 9.73291 14.9307 9.93464 15.3688C9.98965 15.488 9.98965 15.4935 9.95848 15.5283C9.88696 15.6072 9.75492 15.5485 9.57887 15.3597C9.38998 15.1562 9.20843 14.795 9.11307 14.4302C9.02505 14.0873 8.97553 13.4127 9.01221 13.013C9.03238 12.8003 9.0929 12.4208 9.14058 12.2063C9.15158 12.1587 9.16992 12.0102 9.17909 11.8763C9.19009 11.7425 9.2066 11.5665 9.21577 11.4858C9.22494 11.4052 9.23777 11.154 9.24511 10.9267C9.25611 10.5307 9.25428 10.4958 9.19743 10.0742C9.16442 9.83217 9.13508 9.62867 9.13141 9.62133C9.12591 9.614 9.10757 9.4655 9.09107 9.29133C9.06539 9.0365 9.05989 8.8055 9.06356 8.12167C9.06539 7.2985 9.07089 7.1885 9.13324 6.72833C9.17726 6.40017 9.28912 5.80983 9.34414 5.60633C9.36248 5.54033 9.37348 5.47983 9.36798 5.47433C9.34964 5.456 9.44133 5.1425 9.50918 4.99583C9.51835 4.97567 9.5807 4.82717 9.64672 4.66583C9.71274 4.5045 9.78059 4.34683 9.79526 4.31383C9.80993 4.28267 9.82094 4.24783 9.82094 4.23867C9.82094 4.22767 9.83561 4.21483 9.85211 4.20933C9.87045 4.20383 9.89429 4.18 9.90529 4.158C9.9328 4.0975 10.0648 3.85733 10.1712 3.674C10.2207 3.58783 10.2611 3.51083 10.2611 3.5035C10.2611 3.47417 10.7654 2.77567 10.9047 2.6125C10.9414 2.57217 11.2403 2.30083 11.4531 2.11933C12.0986 1.5675 13.0302 0.99 13.7179 0.715C13.9049 0.639833 14.3744 0.474833 14.6348 0.392333C15.1904 0.2145 15.6691 0.154 16.5787 0.141167C16.9436 0.135667 17.0335 0.128333 17.2389 0.0861667C17.5708 0.0201667 17.8312 0 18.33 0C19.0635 0 19.5642 0.0605 20.206 0.227333C20.4059 0.2805 20.5508 0.328167 20.747 0.405167C20.824 0.436333 20.9707 0.4895 21.0716 0.5225C21.4054 0.628833 21.7263 0.777333 22.1077 0.9955C22.3755 1.1495 22.9825 1.53633 23.0411 1.59133C23.0668 1.61517 23.1677 1.6995 23.263 1.77833C23.4483 1.92867 23.5931 2.06617 23.5931 2.09183C23.5931 2.09917 23.6115 2.112 23.6353 2.11933C23.7178 2.145 23.8132 2.22017 23.8994 2.3265C24.0479 2.5135 24.0681 2.541 24.0791 2.58867C24.0901 2.63083 24.1011 2.63633 24.2166 2.6455C24.4294 2.66383 24.5486 2.7665 24.6238 2.99933C24.6568 3.10383 24.6769 3.135 24.7375 3.18083C24.7833 3.21567 24.8347 3.27983 24.8695 3.34583L24.9245 3.45583L25.0327 3.45033C25.1849 3.443 25.317 3.509 25.3976 3.63733C25.4783 3.76383 25.537 3.8995 25.537 3.96C25.537 4.026 25.4545 4.279 25.3995 4.37617C25.3628 4.44217 25.361 4.45683 25.383 4.47517C25.3976 4.48617 25.4086 4.5155 25.4086 4.5375C25.4086 4.5595 25.438 4.64017 25.4728 4.71533C25.5077 4.79233 25.5774 4.9885 25.6269 5.1535C25.6782 5.3185 25.7387 5.51283 25.7644 5.5825C25.7883 5.654 25.8139 5.74383 25.8213 5.78417C25.8286 5.8245 25.8543 5.93267 25.8799 6.0225C25.9496 6.2755 25.9753 6.435 26.0046 6.77417C26.0523 7.33333 26.0578 7.75317 26.0248 8.02083C25.9203 8.8495 25.7736 9.42883 25.5829 9.78083C25.5352 9.867 25.5022 9.93667 25.5095 9.93667C25.5242 9.93667 25.7864 9.735 25.8451 9.68183C25.9185 9.61033 26.1257 9.46 26.2027 9.4215C26.2541 9.394 26.3274 9.37933 26.4301 9.372C26.5731 9.36283 26.5878 9.3665 26.7033 9.42333C26.7694 9.4545 26.8519 9.50583 26.8849 9.53517L26.9454 9.59017L27.0169 9.54983C27.0554 9.52967 27.1691 9.4655 27.27 9.40683L27.4534 9.30417L27.6276 9.306C27.7523 9.306 27.8312 9.317 27.9063 9.3445C27.998 9.37567 28.0127 9.3775 28.0219 9.35183C28.0421 9.30233 28.0677 8.9485 28.0824 8.55983C28.0971 8.195 28.0989 8.18033 28.1466 8.09783C28.1851 8.03183 28.2126 8.00983 28.2639 7.99517C28.407 7.95483 28.5922 8.0685 28.6436 8.228C28.6674 8.30133 28.7463 8.7615 28.7463 8.833C28.7463 8.86233 28.7921 8.82567 29.0305 8.6075C29.1222 8.525 29.2616 8.3985 29.3423 8.32333C29.7255 7.975 29.8942 7.865 30.0538 7.865C30.217 7.865 30.305 7.94567 30.305 8.096C30.305 8.21333 30.2207 8.3655 30.0685 8.5195C29.9236 8.66617 29.8777 8.70283 29.5678 8.91917C29.4394 9.009 29.3367 9.086 29.3423 9.08967C29.3478 9.09517 29.3698 9.08967 29.3936 9.07867C29.5275 9.009 30.1363 8.80917 30.3215 8.77433C30.3985 8.75967 30.4847 8.7395 30.5122 8.7285C30.6278 8.6845 30.7928 8.72483 30.846 8.80733C30.8827 8.86783 30.8955 8.987 30.868 9.03833C30.8313 9.10983 30.6681 9.2125 30.4554 9.295C30.3472 9.33717 30.2353 9.383 30.2042 9.39767C30.1748 9.4105 30.0996 9.44167 30.0391 9.46733C29.9786 9.493 29.9328 9.515 29.9383 9.515C29.9438 9.515 30.1216 9.52783 30.3325 9.5425C30.813 9.57367 30.9065 9.603 30.9762 9.73867C31.0312 9.845 30.989 9.9495 30.868 10.0082C30.8258 10.0283 30.7066 10.0632 30.6076 10.0833C30.5067 10.1035 30.4114 10.1255 30.3967 10.131C30.382 10.1365 30.4627 10.1878 30.5893 10.2502C30.8368 10.3748 30.8827 10.4097 30.912 10.4995C30.9634 10.6572 30.857 10.8167 30.6993 10.8167C30.6553 10.8167 30.5819 10.8057 30.5398 10.791C30.4957 10.7763 30.3875 10.7433 30.2959 10.714C30.206 10.6865 30.0648 10.6407 29.9859 10.6095L29.8411 10.5545L29.6467 10.6022C29.4431 10.6535 29.069 10.6975 28.9571 10.6847C28.904 10.6792 28.8948 10.6828 28.904 10.7048C28.9773 10.879 28.9883 10.923 28.981 11.0458C28.9755 11.1705 28.9718 11.1797 28.8563 11.3465C28.7206 11.5408 28.583 11.7113 28.4327 11.8708C28.2291 12.089 28.1961 12.1257 28.1961 12.1458C28.1906 12.3768 28.0035 12.837 27.8073 13.0992C27.6716 13.2788 27.6203 13.3247 27.4662 13.4017C27.3048 13.4823 27.0903 13.5538 26.5548 13.7097C26.2485 13.7995 26.1257 13.8417 26.001 13.8948C25.9276 13.926 25.8598 13.9517 25.8488 13.9517C25.8378 13.9517 25.7332 14.0158 25.614 14.0947C25.4967 14.1735 25.3316 14.278 25.2473 14.3275C24.8475 14.5677 24.6091 14.7033 24.5908 14.7033C24.5706 14.7033 23.8884 15.0443 23.7307 15.1342C23.6903 15.1562 23.5913 15.2093 23.5124 15.2533C23.4318 15.2955 23.2722 15.389 23.1548 15.4605C23.0375 15.5302 22.8266 15.6548 22.6854 15.7355C22.0454 16.0985 21.6658 16.3478 21.5301 16.4927C21.4659 16.5587 21.4659 16.5623 21.4659 16.7273C21.4659 16.9107 21.442 17.2022 21.4017 17.5212C21.3778 17.699 21.3778 17.7467 21.3999 17.8787C21.4145 17.963 21.431 18.0767 21.4384 18.1317C21.4677 18.37 21.5411 18.7972 21.5832 18.9842C21.6584 19.3105 21.7611 19.9412 21.7721 20.1355L21.7831 20.3152L21.7061 20.4692C21.6584 20.5627 21.5924 20.6562 21.5392 20.7093L21.4512 20.7955L21.4989 20.834C21.5264 20.856 21.5612 20.8817 21.5759 20.8945C21.5906 20.9055 21.7208 21.0063 21.862 21.1163C22.005 21.2263 22.1517 21.3437 22.1902 21.3785C22.2288 21.4133 22.2691 21.45 22.2801 21.4592C22.2911 21.4702 22.3388 21.5105 22.3846 21.5508C22.4286 21.5912 22.535 21.6865 22.6194 21.7617C22.7037 21.8368 22.7972 21.9212 22.8284 21.9505L22.8853 22H17.3636H11.8437L11.8308 21.9432ZM16.7896 14.6043C16.7896 14.5768 16.7566 14.5475 16.7419 14.5622C16.729 14.575 16.7547 14.63 16.7731 14.63C16.7822 14.63 16.7896 14.619 16.7896 14.6043Z" fill="#C4C4C4"/><path d="M28.385 6.16362C28.3611 6.15995 28.319 6.13245 28.2878 6.10312C28.242 6.05729 28.2328 6.03162 28.2328 5.96195C28.2328 5.89229 28.2438 5.86112 28.2896 5.80612C28.3373 5.74745 28.3721 5.73095 28.5316 5.68145C28.6343 5.64845 28.7681 5.60079 28.8286 5.57329C28.8891 5.54579 29.034 5.49445 29.1495 5.45779C29.5693 5.32762 29.6555 5.30012 29.804 5.24512C29.8883 5.21395 30.0148 5.17545 30.0845 5.15895C30.2055 5.12962 30.2183 5.12962 30.277 5.15712C30.3411 5.18829 30.4255 5.30012 30.4511 5.39179C30.4713 5.45779 30.4401 5.59345 30.3906 5.66862C30.31 5.78595 30.1761 5.84279 29.7453 5.93995C29.6445 5.96195 29.5125 5.99312 29.452 6.00779C29.3915 6.02245 29.2521 6.04995 29.1403 6.07012C29.0303 6.09029 28.8763 6.12329 28.8011 6.14345C28.6765 6.17462 28.5206 6.18195 28.385 6.16362Z" fill="#C4C4C4"/><path d="M27.4881 4.6494C27.3524 4.51373 27.4111 4.39273 27.7998 4.0059C28.0968 3.71256 28.3369 3.44673 28.4836 3.25423C28.6761 2.9994 28.8099 2.89673 28.9511 2.89673C29.0593 2.89673 29.1381 2.9499 29.1931 3.05806C29.2939 3.2579 29.2664 3.40273 29.0959 3.57506C28.9896 3.6814 28.7164 3.91973 28.4616 4.12506C28.3809 4.18923 28.3076 4.2534 28.2966 4.2644C28.2874 4.2754 28.2416 4.31206 28.1958 4.3469C28.1518 4.38173 28.0693 4.44956 28.0124 4.49723C27.8621 4.62923 27.7136 4.71173 27.6238 4.71173C27.5651 4.71173 27.5376 4.6989 27.4881 4.6494Z" fill="#C4C4C4"/><path d="M26.1073 3.78412C26.0761 3.75845 26.0468 3.71262 26.0413 3.67778C26.0266 3.60995 26.0578 3.25245 26.0963 3.01595C26.1275 2.82895 26.1513 2.59245 26.1806 2.19095C26.2026 1.89395 26.2375 1.77662 26.3291 1.69045C26.4373 1.59145 26.6738 1.66845 26.76 1.83345C26.8333 1.97095 26.8205 2.09562 26.6756 2.68412C26.606 2.96828 26.5363 3.28178 26.5198 3.38262C26.4795 3.63928 26.4611 3.69612 26.3878 3.76762C26.3053 3.85012 26.1935 3.85745 26.1073 3.78412Z" fill="#C4C4C4"/></mask><g mask="url(#b)"><path d="M0 0H40V32H0V0Z" fill="url(#d)"/></g><defs><linearGradient id="c" x1="0" y1="0" x2="31.2195" y2="39.0244" gradientUnits="userSpaceOnUse"><stop stop-color="#FF91BE"/><stop offset="1" stop-color="#91C3FF"/></linearGradient><linearGradient id="d" x1="0" y1="0" x2="31.2195" y2="39.0244" gradientUnits="userSpaceOnUse"><stop stop-color="#FF91BE"/><stop offset="1" stop-color="#91C3FF"/></linearGradient></defs></svg>