<svg width="16" height="16" viewBox="0 0 16 16" fill="none" xmlns="http://www.w3.org/2000/svg"><path d="M0.170616 4.64929L1.64929 3.17062C1.76303 3.05687 1.89573 3 2.04739 3C2.21169 3 2.35071 3.05687 2.46445 3.17062L7.6019 8.2891C7.69036 8.40284 7.82306 8.45972 8 8.45972C8.1643 8.45972 8.297 8.40284 8.3981 8.2891L13.5355 3.17062C13.6493 3.05687 13.782 3 13.9336 3C14.0979 3 14.237 3.05687 14.3507 3.17062L15.8294 4.64929C15.9431 4.76303 16 4.90205 16 5.06635C16 5.21801 15.9431 5.35071 15.8294 5.46445L8.3981 12.8768C8.297 12.9905 8.1643 13.0474 8 13.0474C7.82306 13.0474 7.69036 12.9905 7.6019 12.8768L0.170616 5.46445C0.0568721 5.35071 0 5.21801 0 5.06635C0 4.90205 0.0568721 4.76303 0.170616 4.64929Z" fill="#B4B4B4"/></svg>
