<svg fill="none" height="16" viewBox="0 0 35 16" width="35" xmlns="http://www.w3.org/2000/svg" xmlns:xlink="http://www.w3.org/1999/xlink"><linearGradient id="a" gradientUnits="userSpaceOnUse" x1="0" x2="35" y1="0" y2="16"><stop offset="0" stop-color="#ff91be"/><stop offset="1" stop-color="#91c3ff"/></linearGradient><rect fill="url(#a)" height="16" rx="2" width="35"/><g fill="#fff"><path d="m4 12v-8h2.82752c.97946 0 1.72238.18681 2.22874.56044.50637.36996.75955.91392.75955 1.63187 0 .39194-.10164.73809-.30493 1.03846-.20328.2967-.48603.51465-.84825.65385.41396.10256.73922.30952.97577.62087.24024.31136.36037.69231.36037 1.14286 0 .76925-.24764 1.35165-.74292 1.74725s-1.20123.5971-2.11786.6044zm1.66324-3.48352v2.15932h1.42485c.39179 0 .69671-.0916.91478-.2747.22177-.1868.33265-.44322.33265-.76923 0-.7326-.38254-1.1044-1.14764-1.11539zm0-1.16483h1.23081c.83901-.01465 1.25852-.34616 1.25852-.99451 0-.36263-.10719-.62271-.32156-.78022-.21068-.16117-.54518-.24176-1.00349-.24176h-1.16428z"/><path d="m16.1084 8.53297h-3.1934v2.14283h3.7478v1.3242h-5.4111v-8h5.4v1.33516h-3.7367v1.9066h3.1934z"/><path d="m23.8259 5.33516h-2.4727v6.66484h-1.6633v-6.66484h-2.4394v-1.33516h6.5754z"/><path d="m28.6715 10.3516h-2.9163l-.5544 1.6484h-1.7686l3.005-8h1.5412l3.0216 8h-1.7686zm-2.4672-1.33512h2.0181l-1.0146-2.9945z"/></g></svg>