<svg fill="none" height="12" viewBox="0 0 15 12" width="15" xmlns="http://www.w3.org/2000/svg"><path d="m14.0811 3.44666-7.73159 7.75004c-.12193.1222-.26603.1833-.4323.1833-.15519 0-.29375-.0611-.41568-.1833l-5.054632-5.05004c-.121932-.12222-.182898-.26111-.182898-.41666 0-.16667.060966-.31111.182898-.43334l1.546322-1.55c.12193-.12222.26049-.18333.41567-.18333.16627 0 .31037.06111.43231.18333l2.66033 2.66667c.12193.12222.26049.18333.41568.18333.16627 0 .31037-.06111.4323-.18333l5.33729-5.35c.1219-.122221.2605-.183333.4157-.183333.1663 0 .3104.061112.4323.183333l1.5463 1.53333c.1219.12223.1829.26667.1829.43334 0 .15555-.061.29444-.1829.41666z" fill="#fff"/></svg>