<svg fill="none" height="16" viewBox="0 0 16 16" width="16" xmlns="http://www.w3.org/2000/svg" xmlns:xlink="http://www.w3.org/1999/xlink"><linearGradient id="a" gradientUnits="userSpaceOnUse" x1="-156" x2="171" y1=".000005" y2="33"><stop offset="0" stop-color="#ff91be"/><stop offset="1" stop-color="#91c3ff"/></linearGradient><path d="m1.392 5.072 1.248-1.248c.096-.096.208-.144.336-.144.13867 0 .256.048.352.144l4.336 4.32c.07467.096.18667.144.336.144.13867 0 .25067-.048.336-.144l4.336-4.32c.096-.096.208-.144.336-.144.1387 0 .256.048.352.144l1.248 1.248c.096.096.144.21333.144.352 0 .128-.048.24-.144.336l-6.272 6.256c-.08533.096-.19733.144-.336.144-.14933 0-.26133-.048-.336-.144l-6.272-6.256c-.096-.096-.144-.208-.144-.336 0-.13867.048-.256.144-.352z" fill="url(#a)"/></svg>