<svg fill="none" height="16" viewBox="0 0 16 16" width="16" xmlns="http://www.w3.org/2000/svg"><path d="m6.35183 11.0645c0-1.0036.12579-1.80285.37736-2.39783.25157-.59499.71032-1.17921 1.37625-1.75269.67332-.58065 1.12098-1.05018 1.34295-1.4086.22198-.3656.33296-.74911.33296-1.15054 0-1.21147-.57713-1.81721-1.73141-1.81721-.54754 0-.98779.16488-1.32075.49463-.32556.32258-.49575.77061-.51054 1.34408h-3.21865c.0148-1.36917.46985-2.44086 1.36515-3.21505.9027-.774193 2.13097-1.16129 3.68479-1.16129 1.56863 0 2.78576.369176 3.65146 1.10753.8657.73118 1.2986 1.76702 1.2986 3.10752 0 .60932-.1406 1.18638-.4218 1.73119-.2811.53763-.7732 1.1362-1.4761 1.7957l-.899.82795c-.56233.5233-.8842 1.1362-.96559 1.83871l-.04439.6559zm-.32186 3.3011c0-.4803.16648-.8746.49944-1.1828.34036-.3154.77322-.4731 1.29856-.4731s.95449.1577 1.28746.4731c.34036.3082.51054.7025.51054 1.1828 0 .4731-.16648.8638-.49944 1.172-.32557.3083-.75842.4624-1.29856.4624s-.97669-.1541-1.30966-.4624c-.32556-.3082-.48834-.6989-.48834-1.172z" fill="#b4b4b4"/></svg>