<svg width="16" height="16" viewBox="0 0 16 16" fill="none" xmlns="http://www.w3.org/2000/svg"><path d="M8.15418 0.295085L15.028 7.05654C15.2825 7.31113 15.4098 7.62561 15.4098 8C15.4098 8.37439 15.2825 8.68888 15.028 8.94346L8.15418 15.7049C7.8996 15.9595 7.67496 16.0494 7.48028 15.9745C7.2856 15.8996 7.18826 15.675 7.18826 15.3006V13.1441V13.1216V12.9419C7.17328 12.8671 7.12836 12.7847 7.05348 12.6948C6.9786 12.605 6.83633 12.5601 6.62668 12.5601H1.3478C0.97341 12.5601 0.651436 12.4328 0.381876 12.1782C0.127292 11.9086 0 11.5866 0 11.2123V4.78775C0 4.41336 0.127292 4.09887 0.381876 3.84429C0.651436 3.57473 0.97341 3.43995 1.3478 3.43995H6.69407C6.87377 3.43995 6.99358 3.39502 7.05348 3.30517C7.12836 3.21532 7.17328 3.13295 7.18826 3.05807V2.87837V0.699425C7.18826 0.325037 7.2856 0.100404 7.48028 0.0255265C7.67496 -0.0493511 7.8996 0.0405018 8.15418 0.295085Z" fill="#B4B4B4"/></svg>
