<svg width="16" height="16" viewBox="0 0 16 16" fill="none" xmlns="http://www.w3.org/2000/svg"><path d="M8 11.1236C8.42806 11.1236 8.83297 11.0427 9.21475 10.8807C9.59653 10.7187 9.92625 10.4989 10.2039 10.2213C10.4931 9.93203 10.7187 9.59653 10.8807 9.21475C11.0427 8.83297 11.1236 8.42806 11.1236 8C11.1236 7.57195 11.0427 7.16703 10.8807 6.78525C10.7187 6.40347 10.4931 6.07375 10.2039 5.7961C9.92625 5.50687 9.59653 5.28127 9.21475 5.11931C8.83297 4.95734 8.42806 4.87636 8 4.87636C7.57195 4.87636 7.16703 4.95734 6.78525 5.11931C6.40347 5.28127 6.06797 5.50687 5.77874 5.7961C5.50109 6.07375 5.28127 6.40347 5.11931 6.78525C4.95734 7.16703 4.87636 7.57195 4.87636 8C4.87636 8.42806 4.95734 8.83297 5.11931 9.21475C5.28127 9.59653 5.50109 9.93203 5.77874 10.2213C6.06797 10.4989 6.40347 10.7187 6.78525 10.8807C7.16703 11.0427 7.57195 11.1236 8 11.1236ZM14.3688 6.92408L15.7571 7.11497C15.919 7.13811 16 7.22487 16 7.37527V8.62473C16 8.7867 15.919 8.87925 15.7571 8.90239L14.3688 9.09327C14.2994 9.48662 14.1952 9.87419 14.0564 10.256L15.167 11.1063C15.2943 11.2104 15.3174 11.3319 15.2364 11.4707L14.6117 12.5466C14.5307 12.6623 14.4208 12.7028 14.282 12.6681L12.9805 12.1302C12.8532 12.2921 12.7144 12.4425 12.564 12.5813C12.4252 12.7202 12.2806 12.8532 12.1302 12.9805L12.6508 14.282C12.6739 14.3398 12.6739 14.4035 12.6508 14.4729C12.6276 14.5423 12.5871 14.5886 12.5293 14.6117L11.4534 15.2364C11.3261 15.3174 11.2104 15.2943 11.1063 15.167L10.2386 14.0738C9.84527 14.201 9.4577 14.2993 9.07592 14.3688L8.88503 15.7571C8.8619 15.919 8.77513 16 8.62473 16H7.37527C7.21331 16 7.12075 15.919 7.09761 15.7571L6.90673 14.3688C6.51338 14.2993 6.12581 14.1952 5.74404 14.0564L4.89371 15.167C4.78959 15.2943 4.66811 15.3174 4.52928 15.2364L3.45336 14.6117C3.33767 14.5307 3.29718 14.4208 3.33189 14.282L3.86985 12.9805C3.70788 12.8532 3.55748 12.7202 3.41866 12.5813C3.27983 12.4309 3.14678 12.2805 3.01952 12.1302L1.718 12.6508C1.66016 12.6739 1.59653 12.6739 1.52712 12.6508C1.4577 12.6276 1.41142 12.5871 1.38829 12.5293L0.763558 11.4534C0.682574 11.3261 0.705712 11.2104 0.832972 11.1063L1.92625 10.2386C1.79899 9.84526 1.70065 9.4577 1.63124 9.07592L0.24295 8.88503C0.0809834 8.86189 0 8.77513 0 8.62473V7.37527C0 7.2133 0.0809834 7.12075 0.24295 7.09761L1.63124 6.90672C1.70065 6.51338 1.80477 6.12581 1.9436 5.74403L0.832972 4.89371C0.705712 4.78959 0.682574 4.66811 0.763558 4.52928L1.38829 3.45336C1.46927 3.33767 1.57918 3.29718 1.718 3.33189L3.01952 3.86985C3.14678 3.70788 3.27983 3.55748 3.41866 3.41865C3.56905 3.27983 3.71945 3.14678 3.86985 3.01952L3.34924 1.718C3.3261 1.66016 3.3261 1.59653 3.34924 1.52711C3.37238 1.4577 3.41287 1.41142 3.47072 1.38829L4.54664 0.763557C4.6739 0.682574 4.78959 0.705712 4.89371 0.832971L5.76139 1.92625C6.15474 1.79899 6.5423 1.70065 6.92408 1.63124L7.11497 0.24295C7.13811 0.0809834 7.22487 0 7.37527 0H8.62473C8.7867 0 8.87925 0.0809834 8.90239 0.24295L9.09328 1.63124C9.48662 1.70065 9.87419 1.80477 10.256 1.9436L11.1063 0.832971C11.2104 0.705712 11.3319 0.682574 11.4707 0.763557L12.5466 1.38829C12.6739 1.46927 12.7086 1.57918 12.6508 1.718L12.1302 3.01952C12.2921 3.14678 12.4425 3.28561 12.5813 3.43601C12.7202 3.57484 12.8532 3.71945 12.9805 3.86985L14.282 3.34924C14.3398 3.3261 14.4035 3.3261 14.4729 3.34924C14.5423 3.37238 14.5886 3.41287 14.6117 3.47072L15.2364 4.54664C15.3174 4.6739 15.2943 4.78959 15.167 4.89371L14.0738 5.76139C14.201 6.15474 14.2994 6.5423 14.3688 6.92408Z" fill="#B4B4B4"/></svg>
