<svg width="40" height="32" viewBox="0 0 40 32" fill="none" xmlns="http://www.w3.org/2000/svg">
<mask id="mask0" mask-type="alpha" maskUnits="userSpaceOnUse" x="12" y="24" width="16" height="8">
<path d="M14.052 24.24C13.636 25.376 12.908 26.512 12.164 27.232C12.324 27.464 12.588 27.976 12.676 28.208C12.884 27.992 13.084 27.752 13.284 27.496V31.68H14.188V26.104C14.476 25.592 14.724 25.048 14.932 24.528L14.052 24.24ZM15.996 25.408H18.34V26.48H15.996V25.408ZM19.684 28.904V28.04H17.62V27.32H19.292V24.568H15.092V27.32H16.66V28.04H14.564V28.904H16.204C15.708 29.608 14.996 30.256 14.276 30.632C14.492 30.816 14.788 31.16 14.932 31.392C15.564 30.984 16.172 30.376 16.66 29.672V31.696H17.62V29.632C18.076 30.344 18.66 30.992 19.244 31.408C19.396 31.168 19.7 30.832 19.916 30.648C19.244 30.256 18.556 29.6 18.084 28.904H19.684ZM27.556 26.168V25.256H23.692C23.796 24.992 23.884 24.72 23.964 24.456L22.948 24.224C22.86 24.56 22.756 24.912 22.62 25.256H20.452V26.168H22.22C21.732 27.128 21.052 28 20.18 28.568C20.34 28.808 20.556 29.24 20.652 29.504C20.908 29.328 21.14 29.144 21.364 28.936V31.68H22.324V27.864C22.716 27.344 23.036 26.768 23.316 26.168H27.556ZM27.668 28.8H25.788V28.584C26.308 28.192 26.852 27.672 27.244 27.216L26.652 26.736L26.452 26.792H23.412V27.648H25.66C25.484 27.824 25.3 28 25.116 28.144H24.82V28.8H22.796V29.688H24.82V30.656C24.82 30.76 24.78 30.784 24.652 30.792C24.524 30.8 24.052 30.8 23.652 30.776C23.764 31.04 23.884 31.416 23.916 31.696C24.556 31.696 25.028 31.688 25.356 31.544C25.7 31.408 25.788 31.16 25.788 30.68V29.688H27.668V28.8Z" fill="#B4B4B4"/>
</mask>
<g mask="url(#mask0)">
<rect width="40" height="32" fill="url(#paint0_linear)"/>
</g>
<mask id="mask1" mask-type="alpha" maskUnits="userSpaceOnUse" x="9" y="0" width="22" height="22">
<path fill-rule="evenodd" clip-rule="evenodd" d="M20 0C19.4477 0 19 0.447716 19 1V11H15.5188C15.2312 11 15 11.185 15 11.4117C15 11.495 15.0312 11.5732 15.0844 11.6384L15.1562 11.7061L19.4031 15.7759C19.5469 15.9114 19.7625 16 20.0031 16C20.2438 16 20.4594 15.914 20.6031 15.7759L24.8531 11.6983L24.9094 11.6436C24.9656 11.5784 25 11.4977 25 11.4117C25 11.185 24.7688 11 24.4812 11H21V1C21 0.447715 20.5523 0 20 0ZM9 20C9 18.8954 9.89543 18 11 18H29C30.1046 18 31 18.8954 31 20C31 21.1046 30.1046 22 29 22H11C9.89543 22 9 21.1046 9 20ZM22 20C22 19.4477 22.4477 19 23 19C23.5523 19 24 19.4477 24 20C24 20.5523 23.5523 21 23 21C22.4477 21 22 20.5523 22 20ZM25 20C25 19.4477 25.4477 19 26 19H28C28.5523 19 29 19.4477 29 20C29 20.5523 28.5523 21 28 21H26C25.4477 21 25 20.5523 25 20Z" fill="#B4B4B4"/>
</mask>
<g mask="url(#mask1)">
<rect width="40" height="32" fill="url(#paint1_linear)"/>
</g>
<defs>
<linearGradient id="paint0_linear" x1="0" y1="0" x2="31.2195" y2="39.0244" gradientUnits="userSpaceOnUse">
<stop stop-color="#FF91BE"/>
<stop offset="1" stop-color="#91C3FF"/>
</linearGradient>
<linearGradient id="paint1_linear" x1="0" y1="0" x2="31.2195" y2="39.0244" gradientUnits="userSpaceOnUse">
<stop stop-color="#FF91BE"/>
<stop offset="1" stop-color="#91C3FF"/>
</linearGradient>
</defs>
</svg>
