<svg fill="none" height="16" viewBox="0 0 16 16" width="16" xmlns="http://www.w3.org/2000/svg"><path clip-rule="evenodd" d="m3.41513 4.31676c.1703.16648.25546.36995.25546.61041s-.08516.44393-.25546.6104c-.16135.16648-.35855.24971-.5916.24971s-.43025-.08323-.5916-.24971c-.16134-.16647-.24201-.36994-.24201-.6104s.08067-.44393.24201-.61041c.16135-.17572.35855-.26358.5916-.26358s.43025.08786.5916.26358zm4.10344 5.54914h-5.51521c-.0986 0-.16134-.02313-.18823-.06937-.01793-.05549.00896-.1156.08067-.18034l1.62689-1.66474c.07171-.07399.1479-.11099.22857-.11099.08964 0 .17031.037.24202.11099l.51092.52716c.07171.07399.15238.11099.24202.11099.08963 0 .17031-.037.24201-.11099l2.60841-2.69133c.07171-.07399.1479-.11098.22857-.11098.08964 0 .17031.03699.24202.11098l1.21142 1.25578c.69422-.48914 1.54095-.77639 2.45465-.77639.0195 0 .0389.00013.0583.00039v-2.87978c0-.10173-.0314-.18497-.0941-.24971-.0628-.06474-.1434-.09711-.242-.09711h-10.11096c-.0986 0-.17927.03237-.24202.09711-.06274.06474-.09412.14798-.09412.24971v6.82542c0 .1018.03138.185.09412.2497.06275.0648.14342.0971.24202.0971h6.12221l-.00008-.0262c0-.227.01773-.4499.0519-.6674zm5.28143-7.2v3.73519c1.8402.47364 3.2 2.14415 3.2 4.13221 0 2.3564-1.9103 4.2667-4.2667 4.2667-1.98806 0-3.65857-1.3598-4.13221-3.2h-6.969157c-.179272 0-.331653-.0647-.457143-.1942-.1165267-.1295-.17479-.2867-.17479-.4717v-8.2682c0-.18498.0582633-.3422.17479-.47168.12549-.12948.277871-.19422.457143-.19422h11.536167c.1792 0 .3271.06474.4437.19422.1255.12948.1882.2867.1882.47168zm-1.0667 11.1341c1.8042 0 3.2667-1.4625 3.2667-3.2667 0-1.8041-1.4625-3.26663-3.2667-3.26663-1.8041 0-3.26663 1.46253-3.26663 3.26663 0 1.8042 1.46253 3.2667 3.26663 3.2667zm1.9709-3.81354h-1.424v-1.42402c0-.04332-.0162-.08122-.0487-.11371s-.0704-.04873-.1137-.04873h-.7689c-.0433 0-.0812.01624-.1137.04873s-.0487.07039-.0487.11371v1.42402h-1.42406c-.04332 0-.08122.01624-.11371.04874s-.04873.0704-.04873.1137v.7689c0 .0433.01624.0812.04873.1137s.07039.0487.11371.0487h1.42406v1.424c0 .0433.0162.0812.0487.1137s.0704.0488.1137.0488h.7689c.0433 0 .0812-.0163.1137-.0488s.0487-.0704.0487-.1137v-1.424h1.424c.0433 0 .0812-.0162.1137-.0487s.0488-.0704.0488-.1137v-.7689c0-.0433-.0163-.0812-.0488-.1137s-.0704-.04874-.1137-.04874z" fill="#b4b4b4" fill-rule="evenodd"/></svg>