<svg width="16" height="16" viewBox="0 0 26 26" fill="none" xmlns="http://www.w3.org/2000/svg"><path d="M24.5154 17.8864L24.5164 17.8842C25.1727 16.3461 25.5 14.7165 25.5 13C25.5 11.284 25.1728 9.66378 24.516 8.14431C23.8632 6.61465 22.9731 5.28322 21.845 4.15505C20.7168 3.02689 19.3854 2.13684 17.8558 1.48405C16.3363 0.827169 14.716 0.5 13 0.5C11.3444 0.5 9.77515 0.806935 8.29663 1.42298C6.94912 1.98445 5.74427 2.73627 4.68492 3.67848L3.86116 3.17154C3.43964 2.9004 2.94525 2.78215 2.47302 3.03642C2.01048 3.28549 1.82282 3.74968 1.79792 4.24776L1.79784 4.24775L1.79754 4.25701L1.65024 8.94116C1.62734 9.44024 1.75546 9.93749 2.19685 10.2317L2.20441 10.2368L2.21215 10.2416C2.67286 10.5251 3.17887 10.4438 3.62679 10.1962L7.78026 7.98689L7.7803 7.98697L7.78828 7.98253C8.21832 7.74362 8.57617 7.3726 8.57617 6.83784C8.57617 6.31667 8.26784 5.92406 7.84656 5.65147L7.84447 5.65012L7.69747 5.55604C8.33996 5.08681 9.04496 4.70706 9.8139 4.41675C10.817 4.04542 11.8779 3.85872 13 3.85872C14.271 3.85872 15.4501 4.10131 16.5428 4.58285L16.5428 4.5829L16.5494 4.58568C17.6503 5.05218 18.6185 5.70401 19.4573 6.54274C20.296 7.38148 20.9478 8.34968 21.4143 9.4506L21.4143 9.45062L21.4171 9.45716C21.8987 10.5499 22.1413 11.729 22.1413 13C22.1413 14.271 21.8987 15.4501 21.4171 16.5428L21.4171 16.5428L21.4143 16.5494C20.9478 17.6503 20.296 18.6185 19.4573 19.4573C18.6179 20.2966 17.6486 20.9589 16.5461 21.4452C15.4527 21.9079 14.2725 22.1413 13 22.1413C11.7275 22.1413 10.5472 21.9079 9.4539 21.4452C8.35143 20.9589 7.38208 20.2966 6.54274 19.4573C5.7034 18.6179 5.04111 17.6486 4.55481 16.5461C4.09206 15.4528 3.85872 14.2725 3.85872 13C3.85872 12.54 3.69233 12.1342 3.35871 11.8207C3.04513 11.487 2.63938 11.3206 2.17936 11.3206C1.71286 11.3206 1.3006 11.4911 0.970771 11.8209C0.651624 12.14 0.5 12.5468 0.5 13C0.5 14.7165 0.827335 16.3461 1.48359 17.8842L1.48456 17.8864C2.13765 19.3967 3.02775 20.7177 4.15505 21.845C5.28235 22.9723 6.60331 23.8623 8.11358 24.5154L8.11582 24.5164C9.65394 25.1727 11.2835 25.5 13 25.5C14.716 25.5 16.3362 25.1728 17.8556 24.516C19.3853 23.8632 20.7168 22.9731 21.845 21.845C22.9723 20.7177 23.8623 19.3967 24.5154 17.8864Z" fill="black" stroke="white"/></svg>
