<svg width="22" height="22" viewBox="0 0 22 22" fill="none" xmlns="http://www.w3.org/2000/svg"><mask id="a" mask-type="alpha" maskUnits="userSpaceOnUse" x="2" y="0" width="18" height="22"><path fill-rule="evenodd" clip-rule="evenodd" d="M4.75001 2V10H9.75H11.75H17.25V2H4.75001ZM9.75 12H4.75001V20H9.75V12ZM11.75 20V12H17.25V20H11.75ZM2.75001 21V12H2.75V10H2.75001V1C2.75001 0.447716 3.19772 0 3.75001 0H18.25C18.8023 0 19.25 0.447715 19.25 1V21C19.25 21.5523 18.8023 22 18.25 22H3.75001C3.19772 22 2.75001 21.5523 2.75001 21Z" fill="black"/></mask><g mask="url(#a)"><rect x="-9.25" width="40" height="32" fill="#B4B4B4"/></g></svg>
