<svg fill="none" height="22" viewBox="0 0 22 22" width="22" xmlns="http://www.w3.org/2000/svg"><path d="m8.8 7.7c-.605 0-1.1.495-1.1 1.1s.495 1.1 1.1 1.1 1.1-.495 1.1-1.1-.495-1.1-1.1-1.1zm0 4.4c-.605 0-1.1.495-1.1 1.1s.495 1.1 1.1 1.1 1.1-.495 1.1-1.1-.495-1.1-1.1-1.1zm-3.3-3.85c-.3025 0-.55.2475-.55.55s.2475.55.55.55.55-.2475.55-.55-.2475-.55-.55-.55zm3.3 7.7c-.3025 0-.55.2475-.55.55s.2475.55.55.55.55-.2475.55-.55-.2475-.55-.55-.55zm-3.3-3.3c-.3025 0-.55.2475-.55.55s.2475.55.55.55.55-.2475.55-.55-.2475-.55-.55-.55zm3.3-6.6c.3025 0 .55-.2475.55-.55s-.2475-.55-.55-.55-.55.2475-.55.55.2475.55.55.55zm4.4 1.65c-.605 0-1.1.495-1.1 1.1s.495 1.1 1.1 1.1 1.1-.495 1.1-1.1-.495-1.1-1.1-1.1zm0-1.65c.3025 0 .55-.2475.55-.55s-.2475-.55-.55-.55-.55.2475-.55.55.2475.55.55.55zm3.3 6.6c-.3025 0-.55.2475-.55.55s.2475.55.55.55.55-.2475.55-.55-.2475-.55-.55-.55zm0-4.4c-.3025 0-.55.2475-.55.55s.2475.55.55.55.55-.2475.55-.55-.2475-.55-.55-.55zm-5.5-8.25c-6.0775 0-11 4.9225-11 11s4.9225 11 11 11 11-4.9225 11-11-4.9225-11-11-11zm0 19.8c-4.862 0-8.8-3.938-8.8-8.8s3.938-8.8 8.8-8.8 8.8 3.938 8.8 8.8-3.938 8.8-8.8 8.8zm2.2-3.85c-.3025 0-.55.2475-.55.55s.2475.55.55.55.55-.2475.55-.55-.2475-.55-.55-.55zm0-3.85c-.605 0-1.1.495-1.1 1.1s.495 1.1 1.1 1.1 1.1-.495 1.1-1.1-.495-1.1-1.1-1.1z" fill="#b4b4b4"/></svg>