<svg fill="none" height="22" viewBox="0 0 22 22" width="22" xmlns="http://www.w3.org/2000/svg" xmlns:xlink="http://www.w3.org/1999/xlink"><clipPath id="a"><path d="m0 0h11v22h-11z"/></clipPath><path clip-rule="evenodd" d="m11 0c-6.0752 0-11 4.92487-11 11 0 6.0751 4.9248 11 11 11s11-4.9249 11-11c0-6.07513-4.9248-11-11-11zm0 2c-4.97046 0-9 4.02942-9 9 0 4.9706 4.02954 9 9 9 4.9705 0 9-4.0294 9-9 0-4.97058-4.0295-9-9-9z" fill="#b4b4b4" fill-rule="evenodd"/><g clip-path="url(#a)"><rect fill="#b4b4b4" height="22" rx="11" width="22"/></g></svg>