<svg fill="none" height="23" viewBox="0 0 23 23" width="23" xmlns="http://www.w3.org/2000/svg"><path d="m16.8567 6.25585c-.2649 0-.5049-.09104-.7201-.27314-.1821-.19864-.2814-.43867-.298-.72008 0-.28142.0994-.51317.298-.69526l1.2664-1.24154c.1821-.18209.4055-.27314.6704-.27314.2814-.01655.5215.07449.7201.27314s.2897.43868.2731.72009c0 .26486-.091.48834-.2731.67043l-1.2415 1.26636c-.0828.09933-.1904.17382-.3228.22348-.1159.03311-.2401.04966-.3725.04966zm2.4086 3.84875h1.763c.2814 0 .5131.0993.6952.298.1987.1821.298.4138.298.6952 0 .2815-.0993.5215-.298.7201-.1821.1821-.4138.2732-.6952.2732h-1.763c-.2814 0-.5215-.0911-.7201-.2732-.1821-.1986-.2731-.4386-.2731-.7201 0-.2814.091-.5131.2731-.6952.1986-.1987.4387-.298.7201-.298zm-1.7133 6.1084 1.2415 1.2663c.1821.1821.2731.4139.2731.6953 0 .2649-.091.4966-.2731.6953-.1986.1986-.4304.2979-.6953.2979-.2648 0-.4966-.0993-.6952-.2979l-1.2664-1.2416c-.1986-.1821-.298-.4138-.298-.6952 0-.2815.0994-.5215.298-.7201.1987-.1987.4387-.298.7201-.298s.5132.0993.6953.298zm-6.5305 2.1354c.2814 0 .5132.0993.6952.298.1987.1821.298.4138.298.6952v1.763c0 .2814-.0993.5132-.298.6953-.182.1986-.4138.2979-.6952.2979s-.5215-.0993-.7201-.2979c-.1821-.1821-.2731-.4139-.2731-.6953v-1.763c0-.2814.091-.5131.2731-.6952.1986-.1987.4387-.298.7201-.298zm-7.77202-.8691 1.24153-1.2663c.18209-.1987.41385-.298.69526-.298.28142 0 .52144.0993.72009.298.19865.1986.29797.4386.29797.7201 0 .2814-.09932.5131-.29797.6952l-1.26637 1.2416c-.19864.1986-.43039.2979-.69526.2979-.26486 0-.49661-.0993-.69525-.2979-.1821-.1987-.27314-.4304-.27314-.6953 0-.2814.09104-.5132.27314-.6953zm.52144-6.3815c0 .2815-.09932.5215-.29797.7201-.18209.1821-.41384.2732-.69526.2732h-1.76298c-.281412 0-.521442-.0911-.720088-.2732-.182092-.1986-.2731376-.4386-.2731376-.7201 0-.2814.0910456-.5131.2731376-.6952.198646-.1987.438676-.298.720088-.298h1.76298c.28142 0 .51317.0993.69526.298.19865.1821.29797.4138.29797.6952zm.72009-5.11509-1.24153-1.26636c-.1821-.18209-.28142-.40557-.29797-.67043 0-.28141.09932-.52144.29797-.72009.19864-.19865.43039-.28969.69525-.27314.28142 0 .51317.09105.69526.27314l1.26637 1.24154c.19865.18209.28969.41384.27314.69526 0 .28141-.09105.52144-.27314.72008-.2152.1821-.44695.27314-.69526.27314-.31452 0-.55455-.09104-.72009-.27314zm6.53049-2.13544c-.2814 0-.5215-.09104-.7201-.27313-.1821-.19865-.2731-.43868-.2731-.72009v-1.76298c0-.281418.091-.513171.2731-.695263.1986-.198645.4387-.2979676.7201-.2979676s.5132.0993226.6952.2979676c.1987.182092.298.413845.298.695263v1.76298c0 .28141-.0993.52144-.298.72009-.182.18209-.4138.27313-.6952.27313zm0 10.92553c.5132 0 .9932-.0911 1.4402-.2732.4469-.1986.8359-.4635 1.167-.7945.3311-.3311.5877-.7201.7698-1.1671.1986-.4469.2979-.927.2979-1.4402 0-.5131-.0993-.9932-.2979-1.44014-.1821-.44695-.4387-.83597-.7698-1.16704-.3311-.33108-.7201-.58766-1.167-.76976-.447-.19864-.927-.29796-1.4402-.29796s-.9932.09932-1.4402.29796c-.44695.1821-.83596.43868-1.16704.76976-.33107.33107-.59594.72009-.79458 1.16704-.18209.44694-.27314.92704-.27314 1.44014 0 .5132.09105.9933.27314 1.4402.19864.447.46351.836.79458 1.1671.33108.331.72009.5959 1.16704.7945.447.1821.927.2732 1.4402.2732zm0-9.31153c.778 0 1.5064.14898 2.1851.44695.6952.29797 1.2912.70354 1.7878 1.21671.5132.49661.9187 1.09255 1.2167 1.78781.298.6787.447 1.40706.447 2.18506 0 .7781-.149 1.5147-.447 2.21-.298.6787-.7035 1.2746-1.2167 1.7878-.4966.4966-1.0926.8939-1.7878 1.1919-.6787.2979-1.4071.4469-2.1851.4469s-1.51469-.149-2.20995-.4469c-.6787-.298-1.27464-.6953-1.78781-1.1919-.49661-.5132-.8939-1.1091-1.19187-1.7878-.29797-.6953-.44695-1.4319-.44695-2.21 0-.778.14898-1.50636.44695-2.18506.29797-.69526.69526-1.2912 1.19187-1.78781.51317-.51317 1.10911-.91874 1.78781-1.21671.69526-.29797 1.43195-.44695 2.20995-.44695z" fill="#b4b4b4"/></svg>